G75*
%MOIN*%
%OFA0B0*%
%FSLAX25Y25*%
%IPPOS*%
%LPD*%
%AMOC8*
5,1,8,0,0,1.08239X$1,22.5*
%
%ADD10R,0.01969X0.02756*%
%ADD11C,0.07400*%
%ADD12OC8,0.07400*%
%ADD13R,0.02756X0.02756*%
%ADD14R,0.03150X0.04724*%
%ADD15R,0.01200X0.03900*%
%ADD16C,0.06600*%
%ADD17C,0.13000*%
%ADD18R,0.04724X0.03150*%
%ADD19R,0.06500X0.06500*%
%ADD20C,0.06500*%
%ADD21C,0.07000*%
%ADD22C,0.03369*%
%ADD23C,0.05000*%
%ADD24C,0.02400*%
%ADD25C,0.01600*%
%ADD26C,0.01200*%
%ADD27C,0.01000*%
%ADD28C,0.03200*%
D10*
X0194750Y0016138D03*
X0194750Y0021256D03*
X0194750Y0026138D03*
X0194750Y0031256D03*
X0194750Y0036138D03*
X0194750Y0041256D03*
X0194750Y0046138D03*
X0194750Y0051256D03*
X0194750Y0056138D03*
X0194750Y0061256D03*
X0194750Y0066138D03*
X0194750Y0071256D03*
X0194750Y0076138D03*
X0194750Y0081256D03*
X0194750Y0086138D03*
X0194750Y0091256D03*
X0194750Y0096138D03*
X0194750Y0101256D03*
X0194750Y0106138D03*
X0194750Y0111256D03*
X0194750Y0116138D03*
X0194750Y0121256D03*
X0194750Y0126138D03*
X0194750Y0131256D03*
X0194750Y0136138D03*
X0194750Y0141256D03*
X0194750Y0146138D03*
X0194750Y0151256D03*
X0194750Y0156138D03*
X0194750Y0161256D03*
X0194750Y0166138D03*
X0194750Y0171256D03*
D11*
X0206000Y0171000D03*
X0206000Y0161000D03*
X0206000Y0151000D03*
X0206000Y0141000D03*
X0206000Y0131000D03*
X0206000Y0121000D03*
X0206000Y0111000D03*
X0206000Y0101000D03*
X0206000Y0091000D03*
X0206000Y0081000D03*
X0206000Y0071000D03*
X0206000Y0061000D03*
X0206000Y0051000D03*
X0206000Y0041000D03*
X0206000Y0031000D03*
X0206000Y0021000D03*
X0206000Y0011000D03*
X0216000Y0011000D03*
X0216000Y0021000D03*
X0216000Y0031000D03*
X0216000Y0041000D03*
X0216000Y0051000D03*
X0216000Y0061000D03*
X0216000Y0071000D03*
X0216000Y0081000D03*
X0216000Y0091000D03*
X0216000Y0101000D03*
X0216000Y0111000D03*
X0216000Y0121000D03*
X0216000Y0131000D03*
X0216000Y0141000D03*
X0216000Y0151000D03*
X0216000Y0161000D03*
X0216000Y0171000D03*
X0151500Y0111000D03*
X0150500Y0101000D03*
X0151500Y0091000D03*
X0061000Y0215300D03*
X0061000Y0226700D03*
D12*
X0031000Y0216000D03*
X0031000Y0206000D03*
X0031000Y0196000D03*
X0031000Y0186000D03*
X0031000Y0176000D03*
X0031000Y0166000D03*
X0031000Y0156000D03*
X0031000Y0146000D03*
X0031000Y0136000D03*
X0031000Y0126000D03*
X0031000Y0116000D03*
X0031000Y0106000D03*
X0031000Y0096000D03*
X0031000Y0086000D03*
X0031000Y0076000D03*
X0031000Y0066000D03*
X0031000Y0056000D03*
X0031000Y0046000D03*
X0031000Y0036000D03*
X0031000Y0026000D03*
X0021000Y0026000D03*
X0021000Y0036000D03*
X0021000Y0046000D03*
X0021000Y0056000D03*
X0021000Y0066000D03*
X0021000Y0076000D03*
X0021000Y0086000D03*
X0021000Y0096000D03*
X0021000Y0106000D03*
X0021000Y0116000D03*
X0021000Y0126000D03*
X0021000Y0136000D03*
X0021000Y0146000D03*
X0021000Y0156000D03*
X0021000Y0166000D03*
X0021000Y0176000D03*
X0021000Y0186000D03*
X0021000Y0196000D03*
X0021000Y0206000D03*
X0021000Y0216000D03*
D13*
X0065941Y0182358D03*
X0071059Y0182358D03*
X0068500Y0189642D03*
X0078500Y0182142D03*
X0075941Y0174858D03*
X0081059Y0174858D03*
X0088500Y0174642D03*
X0085941Y0167358D03*
X0091059Y0167358D03*
X0098500Y0167142D03*
X0095941Y0159858D03*
X0101059Y0159858D03*
X0105941Y0152358D03*
X0111059Y0152358D03*
X0108500Y0159642D03*
X0118500Y0152142D03*
X0115941Y0144858D03*
X0121059Y0144858D03*
X0128500Y0144642D03*
X0125941Y0137358D03*
X0131059Y0137358D03*
X0138500Y0137142D03*
X0135941Y0129858D03*
X0141059Y0129858D03*
X0134858Y0073559D03*
X0134858Y0068441D03*
X0132142Y0063500D03*
X0124858Y0060941D03*
X0124858Y0066059D03*
X0122142Y0056000D03*
X0114858Y0053441D03*
X0114858Y0058559D03*
X0112142Y0048500D03*
X0104858Y0045941D03*
X0102142Y0041000D03*
X0094858Y0038441D03*
X0094858Y0043559D03*
X0092142Y0033500D03*
X0084858Y0030941D03*
X0084858Y0036059D03*
X0082142Y0026000D03*
X0074858Y0023441D03*
X0074858Y0028559D03*
X0072142Y0018500D03*
X0064858Y0015941D03*
X0064858Y0021059D03*
X0104858Y0051059D03*
X0142142Y0071000D03*
D14*
X0129543Y0073500D03*
X0122457Y0073500D03*
X0119543Y0066000D03*
X0112457Y0066000D03*
X0109543Y0058500D03*
X0102457Y0058500D03*
X0099543Y0051000D03*
X0092457Y0051000D03*
X0089543Y0043500D03*
X0082457Y0043500D03*
X0079543Y0036000D03*
X0072457Y0036000D03*
X0069543Y0028500D03*
X0062457Y0028500D03*
X0059543Y0021000D03*
X0052457Y0021000D03*
X0122457Y0128500D03*
X0129543Y0128500D03*
X0119543Y0136000D03*
X0112457Y0136000D03*
X0109543Y0143500D03*
X0102457Y0143500D03*
X0099543Y0151000D03*
X0092457Y0151000D03*
X0089543Y0158500D03*
X0082457Y0158500D03*
X0079543Y0166000D03*
X0072457Y0166000D03*
X0069543Y0173500D03*
X0062457Y0173500D03*
X0059543Y0181000D03*
X0052457Y0181000D03*
D15*
X0064366Y0112487D03*
X0066925Y0112487D03*
X0069484Y0112487D03*
X0072043Y0112487D03*
X0074602Y0112487D03*
X0077161Y0112487D03*
X0079720Y0112487D03*
X0082280Y0112487D03*
X0084839Y0112487D03*
X0087398Y0112487D03*
X0089957Y0112487D03*
X0092516Y0112487D03*
X0095075Y0112487D03*
X0097634Y0112487D03*
X0097634Y0089513D03*
X0095075Y0089513D03*
X0092516Y0089513D03*
X0089957Y0089513D03*
X0087398Y0089513D03*
X0084839Y0089513D03*
X0082280Y0089513D03*
X0079720Y0089513D03*
X0077161Y0089513D03*
X0074602Y0089513D03*
X0072043Y0089513D03*
X0069484Y0089513D03*
X0066925Y0089513D03*
X0064366Y0089513D03*
D16*
X0121079Y0213200D03*
X0121079Y0221000D03*
X0130921Y0221000D03*
X0130921Y0213200D03*
X0191079Y0213200D03*
X0191079Y0221000D03*
X0200921Y0221000D03*
X0200921Y0213200D03*
D17*
X0219700Y0231700D03*
X0172300Y0231700D03*
X0149700Y0231700D03*
X0102300Y0231700D03*
D18*
X0108500Y0110793D03*
X0108500Y0103707D03*
X0108500Y0098293D03*
X0108500Y0091207D03*
X0051000Y0015793D03*
X0051000Y0008707D03*
D19*
X0084750Y0213500D03*
D20*
X0084750Y0223500D03*
D21*
X0061000Y0226700D02*
X0041700Y0226700D01*
X0031000Y0216000D01*
X0031000Y0206000D01*
X0121000Y0221079D02*
X0121079Y0221000D01*
X0121000Y0221079D02*
X0121000Y0224750D01*
X0126000Y0229750D01*
X0134750Y0229750D01*
X0146000Y0218500D01*
X0181000Y0218500D01*
X0183500Y0221000D01*
X0191079Y0221000D01*
D22*
X0118500Y0141000D03*
X0128500Y0133500D03*
X0138500Y0126000D03*
X0116000Y0124750D03*
X0107250Y0131000D03*
X0096000Y0137250D03*
X0083500Y0143500D03*
X0076000Y0151000D03*
X0067250Y0159750D03*
X0059750Y0167250D03*
X0052250Y0176000D03*
X0068500Y0178500D03*
X0078500Y0171000D03*
X0088500Y0163500D03*
X0098500Y0156000D03*
X0108500Y0148500D03*
X0059750Y0113500D03*
X0091000Y0084750D03*
X0106000Y0069750D03*
X0113500Y0077250D03*
X0119750Y0061000D03*
X0109750Y0053500D03*
X0099750Y0046000D03*
X0089750Y0038500D03*
X0079750Y0031000D03*
X0069750Y0023500D03*
X0059750Y0016000D03*
X0057250Y0033500D03*
X0067250Y0043500D03*
X0074750Y0052250D03*
X0082250Y0061000D03*
X0096000Y0064750D03*
X0129750Y0068500D03*
X0042250Y0242250D03*
D23*
X0011000Y0066000D02*
X0011000Y0021000D01*
X0023293Y0008707D01*
X0051000Y0008707D01*
X0203500Y0008500D01*
X0206000Y0011000D01*
X0206000Y0021000D02*
X0179750Y0021000D01*
X0177250Y0018500D01*
X0072142Y0018500D01*
X0082142Y0026000D02*
X0172250Y0026000D01*
X0177250Y0031000D01*
X0206000Y0031000D01*
X0206000Y0041000D02*
X0174750Y0041000D01*
X0167250Y0033500D01*
X0092142Y0033500D01*
X0102142Y0041000D02*
X0161000Y0041000D01*
X0171000Y0051000D01*
X0206000Y0051000D01*
X0206000Y0061000D02*
X0168500Y0061000D01*
X0156000Y0048500D01*
X0112142Y0048500D01*
X0122142Y0056000D02*
X0151000Y0056000D01*
X0166000Y0071000D01*
X0206000Y0071000D01*
X0206000Y0081000D02*
X0163500Y0081000D01*
X0146000Y0063500D01*
X0132142Y0063500D01*
X0142142Y0071000D02*
X0142250Y0071000D01*
X0162250Y0091000D01*
X0206000Y0091000D01*
X0206000Y0101000D02*
X0178500Y0101000D01*
X0142358Y0137142D01*
X0138500Y0137142D01*
X0146108Y0144642D02*
X0179750Y0111000D01*
X0206000Y0111000D01*
X0206000Y0121000D02*
X0181000Y0121000D01*
X0149750Y0152250D01*
X0118608Y0152250D01*
X0118500Y0152142D01*
X0128500Y0144642D02*
X0146108Y0144642D01*
X0152358Y0159642D02*
X0181000Y0131000D01*
X0206000Y0131000D01*
X0206000Y0141000D02*
X0183500Y0141000D01*
X0157358Y0167142D01*
X0098500Y0167142D01*
X0088500Y0174642D02*
X0162358Y0174642D01*
X0186000Y0151000D01*
X0206000Y0151000D01*
X0206000Y0161000D02*
X0205744Y0161256D01*
X0194750Y0161256D01*
X0190744Y0161256D01*
X0169750Y0182250D01*
X0078608Y0182250D01*
X0078500Y0182142D01*
X0068500Y0189642D02*
X0176364Y0189642D01*
X0194750Y0171256D01*
X0205744Y0171256D01*
X0206000Y0171000D01*
X0152358Y0159642D02*
X0108500Y0159642D01*
X0042250Y0242250D02*
X0021000Y0221000D01*
X0021000Y0216000D01*
X0021000Y0076000D02*
X0011000Y0066000D01*
X0021000Y0026000D02*
X0021000Y0021000D01*
X0026207Y0015793D01*
X0051000Y0015793D01*
X0052457Y0017250D01*
X0052457Y0021000D01*
D24*
X0059750Y0016000D02*
X0059809Y0015941D01*
X0064858Y0015941D01*
X0069809Y0023441D02*
X0069750Y0023500D01*
X0069809Y0023441D02*
X0074858Y0023441D01*
X0079809Y0030941D02*
X0079750Y0031000D01*
X0079809Y0030941D02*
X0084858Y0030941D01*
X0089809Y0038441D02*
X0089750Y0038500D01*
X0089809Y0038441D02*
X0094858Y0038441D01*
X0099809Y0045941D02*
X0099750Y0046000D01*
X0099809Y0045941D02*
X0104858Y0045941D01*
X0109809Y0053441D02*
X0109750Y0053500D01*
X0109809Y0053441D02*
X0114858Y0053441D01*
X0119809Y0060941D02*
X0119750Y0061000D01*
X0119809Y0060941D02*
X0124858Y0060941D01*
X0129809Y0068441D02*
X0129750Y0068500D01*
X0129809Y0068441D02*
X0134858Y0068441D01*
X0122457Y0073500D02*
X0122250Y0073500D01*
X0118500Y0077250D01*
X0113500Y0077250D01*
X0107250Y0084750D02*
X0091000Y0084750D01*
X0106000Y0069750D02*
X0109750Y0066000D01*
X0112457Y0066000D01*
X0102457Y0058500D02*
X0102250Y0058500D01*
X0096000Y0064750D01*
X0092457Y0051000D02*
X0092250Y0051000D01*
X0082250Y0061000D01*
X0074750Y0052250D02*
X0074750Y0049750D01*
X0081000Y0043500D01*
X0082457Y0043500D01*
X0082250Y0043500D01*
X0072457Y0036000D02*
X0071000Y0036000D01*
X0067250Y0039750D01*
X0067250Y0043500D01*
X0057250Y0033500D02*
X0062250Y0028500D01*
X0062457Y0028500D01*
X0107250Y0084750D02*
X0108500Y0086000D01*
X0108500Y0091207D01*
X0101000Y0106000D02*
X0061000Y0106000D01*
X0059750Y0107250D01*
X0059750Y0113500D01*
X0083500Y0143500D02*
X0091000Y0151000D01*
X0092457Y0151000D01*
X0098500Y0156000D02*
X0101059Y0158559D01*
X0101059Y0159858D01*
X0091059Y0166059D02*
X0091059Y0167358D01*
X0091059Y0166059D02*
X0088500Y0163500D01*
X0082457Y0158500D02*
X0082457Y0157457D01*
X0076000Y0151000D01*
X0067250Y0159750D02*
X0072457Y0164957D01*
X0072457Y0166000D01*
X0078500Y0171000D02*
X0081059Y0173559D01*
X0081059Y0174858D01*
X0071059Y0181059D02*
X0068500Y0178500D01*
X0071059Y0181059D02*
X0071059Y0182358D01*
X0062457Y0173500D02*
X0062457Y0169957D01*
X0059750Y0167250D01*
X0052250Y0176000D02*
X0052457Y0176207D01*
X0052457Y0181000D01*
X0096000Y0137250D02*
X0102250Y0143500D01*
X0102457Y0143500D01*
X0108500Y0148500D02*
X0111059Y0151059D01*
X0111059Y0152358D01*
X0121059Y0144858D02*
X0121059Y0143559D01*
X0118500Y0141000D01*
X0112457Y0136000D02*
X0112250Y0136000D01*
X0107250Y0131000D01*
X0116000Y0124750D02*
X0119750Y0128500D01*
X0122457Y0128500D01*
X0128500Y0133500D02*
X0131059Y0136059D01*
X0131059Y0137358D01*
X0141059Y0129858D02*
X0141059Y0128559D01*
X0138500Y0126000D01*
X0108500Y0110793D02*
X0105793Y0110793D01*
X0101000Y0106000D01*
D25*
X0089750Y0121000D02*
X0123500Y0121000D01*
X0129543Y0127043D01*
X0129543Y0128500D01*
X0130902Y0129858D01*
X0135941Y0129858D01*
X0125941Y0137358D02*
X0120902Y0137358D01*
X0119543Y0136000D01*
X0119543Y0134543D01*
X0111000Y0126000D01*
X0088500Y0126000D01*
X0082250Y0119750D01*
X0082250Y0112517D01*
X0082280Y0112487D01*
X0084750Y0112576D02*
X0084750Y0116000D01*
X0089750Y0121000D01*
X0084750Y0112576D02*
X0084839Y0112487D01*
X0079750Y0112517D02*
X0079750Y0124750D01*
X0086000Y0131000D01*
X0098500Y0131000D01*
X0109543Y0142043D01*
X0109543Y0143500D01*
X0110902Y0144858D01*
X0115941Y0144858D01*
X0105941Y0152358D02*
X0100902Y0152358D01*
X0099543Y0151000D01*
X0099543Y0149543D01*
X0094750Y0144750D01*
X0092250Y0144750D01*
X0077250Y0129750D01*
X0077150Y0112676D01*
X0077161Y0112487D01*
X0074650Y0112635D02*
X0074750Y0142250D01*
X0089543Y0157043D01*
X0089543Y0158500D01*
X0090902Y0159858D01*
X0095941Y0159858D01*
X0085941Y0167358D02*
X0080902Y0167358D01*
X0079543Y0166000D01*
X0079543Y0164543D01*
X0072250Y0157250D01*
X0072050Y0112694D01*
X0072043Y0112487D01*
X0069550Y0112753D02*
X0069550Y0122250D01*
X0063500Y0128500D01*
X0063500Y0166000D01*
X0069543Y0172043D01*
X0069543Y0173500D01*
X0070902Y0174858D01*
X0075941Y0174858D01*
X0065941Y0182358D02*
X0060902Y0182358D01*
X0059543Y0181000D01*
X0059543Y0179543D01*
X0056000Y0176000D01*
X0056000Y0129750D01*
X0066950Y0119300D01*
X0066950Y0113612D01*
X0066925Y0112487D01*
X0064366Y0112487D02*
X0063354Y0113500D01*
X0059750Y0113500D01*
X0069484Y0112487D02*
X0069550Y0112753D01*
X0074602Y0112487D02*
X0074650Y0112635D01*
X0079720Y0112487D02*
X0079750Y0112517D01*
X0079720Y0089513D02*
X0079750Y0089483D01*
X0079750Y0084750D01*
X0091000Y0073500D01*
X0113500Y0073500D01*
X0119543Y0067457D01*
X0119543Y0066000D01*
X0119602Y0066059D01*
X0124858Y0066059D01*
X0129543Y0073500D02*
X0129602Y0073559D01*
X0134858Y0073559D01*
X0129543Y0073500D02*
X0129543Y0074957D01*
X0124750Y0081000D01*
X0087250Y0081000D01*
X0082250Y0086000D01*
X0082250Y0089483D01*
X0082280Y0089513D01*
X0077161Y0089513D02*
X0077150Y0089424D01*
X0077150Y0081000D01*
X0089750Y0068500D01*
X0101000Y0068500D01*
X0109543Y0059957D01*
X0109543Y0058500D01*
X0109602Y0058559D01*
X0114858Y0058559D01*
X0104858Y0051059D02*
X0099602Y0051059D01*
X0099543Y0051000D01*
X0099543Y0052457D01*
X0074650Y0077250D01*
X0074650Y0089365D01*
X0074602Y0089513D01*
X0072043Y0089513D02*
X0072050Y0089306D01*
X0072250Y0062250D01*
X0089543Y0044957D01*
X0089543Y0043500D01*
X0089602Y0043559D01*
X0094858Y0043559D01*
X0084858Y0036059D02*
X0079602Y0036059D01*
X0079543Y0036000D01*
X0079543Y0037457D01*
X0069484Y0047516D01*
X0069484Y0089513D01*
X0066925Y0089513D02*
X0066900Y0081550D01*
X0061925Y0076025D01*
X0061925Y0036118D01*
X0069543Y0028500D01*
X0069602Y0028559D01*
X0074858Y0028559D01*
X0064858Y0021059D02*
X0059602Y0021059D01*
X0059543Y0021000D01*
X0052250Y0029543D01*
X0052250Y0076000D01*
X0064366Y0089366D01*
X0064366Y0089513D01*
X0089957Y0089513D02*
X0089957Y0085793D01*
X0091000Y0084750D01*
X0186679Y0192821D02*
X0232250Y0192821D01*
X0232250Y0191223D02*
X0188277Y0191223D01*
X0189876Y0189624D02*
X0232250Y0189624D01*
X0232250Y0188026D02*
X0191474Y0188026D01*
X0193073Y0186427D02*
X0232250Y0186427D01*
X0232250Y0184829D02*
X0194671Y0184829D01*
X0196270Y0183230D02*
X0232250Y0183230D01*
X0232250Y0181632D02*
X0197868Y0181632D01*
X0199467Y0180033D02*
X0232250Y0180033D01*
X0232250Y0178435D02*
X0201065Y0178435D01*
X0202250Y0177250D02*
X0183500Y0196000D01*
X0051000Y0196000D01*
X0051000Y0218500D01*
X0056527Y0218500D01*
X0056296Y0218183D01*
X0055903Y0217411D01*
X0055635Y0216588D01*
X0055500Y0215733D01*
X0055500Y0215500D01*
X0060800Y0215500D01*
X0060800Y0215100D01*
X0061200Y0215100D01*
X0061200Y0215500D01*
X0066500Y0215500D01*
X0066500Y0215733D01*
X0066365Y0216588D01*
X0066097Y0217411D01*
X0065704Y0218183D01*
X0065473Y0218500D01*
X0081076Y0218500D01*
X0080805Y0218427D01*
X0080395Y0218190D01*
X0080060Y0217855D01*
X0079823Y0217445D01*
X0079700Y0216987D01*
X0079700Y0213500D01*
X0084750Y0213500D01*
X0089800Y0213500D01*
X0089800Y0216987D01*
X0089677Y0217445D01*
X0089440Y0217855D01*
X0089105Y0218190D01*
X0088695Y0218427D01*
X0088424Y0218500D01*
X0116000Y0218500D01*
X0116196Y0218304D01*
X0116337Y0217963D01*
X0117250Y0217051D01*
X0117250Y0216584D01*
X0117189Y0216522D01*
X0116717Y0215873D01*
X0116352Y0215158D01*
X0116104Y0214394D01*
X0115979Y0213601D01*
X0115979Y0213300D01*
X0120979Y0213300D01*
X0120979Y0213100D01*
X0121179Y0213100D01*
X0121179Y0208100D01*
X0121480Y0208100D01*
X0122273Y0208226D01*
X0123036Y0208474D01*
X0123752Y0208838D01*
X0124401Y0209310D01*
X0124750Y0209659D01*
X0124750Y0207250D01*
X0137250Y0207250D01*
X0137250Y0214750D01*
X0141972Y0214750D01*
X0142884Y0213837D01*
X0144906Y0213000D01*
X0182094Y0213000D01*
X0184115Y0213837D01*
X0185028Y0214750D01*
X0186220Y0214750D01*
X0186104Y0214394D01*
X0185979Y0213601D01*
X0185979Y0213300D01*
X0190979Y0213300D01*
X0190979Y0213100D01*
X0191179Y0213100D01*
X0191179Y0208100D01*
X0191480Y0208100D01*
X0192273Y0208226D01*
X0193036Y0208474D01*
X0193752Y0208838D01*
X0194401Y0209310D01*
X0194750Y0209659D01*
X0194750Y0207250D01*
X0232250Y0207250D01*
X0232250Y0003500D01*
X0212250Y0003500D01*
X0212250Y0006972D01*
X0212417Y0006805D01*
X0213117Y0006296D01*
X0213889Y0005903D01*
X0214712Y0005635D01*
X0215567Y0005500D01*
X0215800Y0005500D01*
X0215800Y0010800D01*
X0216200Y0010800D01*
X0216200Y0011200D01*
X0215800Y0011200D01*
X0215800Y0016500D01*
X0215800Y0020800D01*
X0216200Y0020800D01*
X0216200Y0021200D01*
X0215800Y0021200D01*
X0215800Y0026500D01*
X0215800Y0030800D01*
X0216200Y0030800D01*
X0216200Y0031200D01*
X0215800Y0031200D01*
X0215800Y0036500D01*
X0215800Y0040800D01*
X0216200Y0040800D01*
X0216200Y0041200D01*
X0215800Y0041200D01*
X0215800Y0046500D01*
X0215800Y0050800D01*
X0216200Y0050800D01*
X0216200Y0051200D01*
X0215800Y0051200D01*
X0215800Y0056500D01*
X0215800Y0060800D01*
X0216200Y0060800D01*
X0216200Y0061200D01*
X0215800Y0061200D01*
X0215800Y0066500D01*
X0215800Y0070800D01*
X0216200Y0070800D01*
X0216200Y0071200D01*
X0215800Y0071200D01*
X0215800Y0075500D01*
X0215800Y0080800D01*
X0216200Y0080800D01*
X0216200Y0081200D01*
X0215800Y0081200D01*
X0215800Y0085500D01*
X0215800Y0090800D01*
X0216200Y0090800D01*
X0216200Y0091200D01*
X0215800Y0091200D01*
X0215800Y0096500D01*
X0215800Y0100800D01*
X0216200Y0100800D01*
X0216200Y0101200D01*
X0215800Y0101200D01*
X0215800Y0106500D01*
X0215800Y0110800D01*
X0216200Y0110800D01*
X0216200Y0111200D01*
X0215800Y0111200D01*
X0215800Y0116500D01*
X0215800Y0120800D01*
X0216200Y0120800D01*
X0216200Y0121200D01*
X0215800Y0121200D01*
X0215800Y0126500D01*
X0215800Y0130800D01*
X0216200Y0130800D01*
X0216200Y0131200D01*
X0215800Y0131200D01*
X0215800Y0136500D01*
X0215800Y0140800D01*
X0216200Y0140800D01*
X0216200Y0141200D01*
X0215800Y0141200D01*
X0215800Y0146500D01*
X0215800Y0150800D01*
X0216200Y0150800D01*
X0216200Y0151200D01*
X0215800Y0151200D01*
X0215800Y0155500D01*
X0215800Y0160800D01*
X0216200Y0160800D01*
X0216200Y0161200D01*
X0215800Y0161200D01*
X0215800Y0166500D01*
X0215800Y0170800D01*
X0216200Y0170800D01*
X0216200Y0171200D01*
X0215800Y0171200D01*
X0215800Y0176500D01*
X0215567Y0176500D01*
X0214712Y0176365D01*
X0213889Y0176097D01*
X0213117Y0175704D01*
X0212417Y0175195D01*
X0212250Y0175028D01*
X0212250Y0177250D01*
X0202250Y0177250D01*
X0212250Y0176836D02*
X0232250Y0176836D01*
X0232250Y0175238D02*
X0219524Y0175238D01*
X0219583Y0175195D02*
X0218883Y0175704D01*
X0218111Y0176097D01*
X0217288Y0176365D01*
X0216433Y0176500D01*
X0216200Y0176500D01*
X0216200Y0171200D01*
X0221500Y0171200D01*
X0221500Y0171433D01*
X0221365Y0172288D01*
X0221097Y0173111D01*
X0220704Y0173883D01*
X0220195Y0174583D01*
X0219583Y0175195D01*
X0220828Y0173639D02*
X0232250Y0173639D01*
X0232250Y0172041D02*
X0221404Y0172041D01*
X0221500Y0170800D02*
X0216200Y0170800D01*
X0216200Y0161200D01*
X0221500Y0161200D01*
X0221500Y0161433D01*
X0221365Y0162288D01*
X0221097Y0163111D01*
X0220704Y0163883D01*
X0220195Y0164583D01*
X0219583Y0165195D01*
X0218883Y0165704D01*
X0218302Y0166000D01*
X0218883Y0166296D01*
X0219583Y0166805D01*
X0220195Y0167417D01*
X0220704Y0168117D01*
X0221097Y0168889D01*
X0221365Y0169712D01*
X0221500Y0170567D01*
X0221500Y0170800D01*
X0221480Y0170442D02*
X0232250Y0170442D01*
X0232250Y0168844D02*
X0221074Y0168844D01*
X0220023Y0167245D02*
X0232250Y0167245D01*
X0232250Y0165647D02*
X0218962Y0165647D01*
X0220584Y0164048D02*
X0232250Y0164048D01*
X0232250Y0162450D02*
X0221312Y0162450D01*
X0221500Y0160800D02*
X0216200Y0160800D01*
X0216200Y0151200D01*
X0221500Y0151200D01*
X0221500Y0151433D01*
X0221365Y0152288D01*
X0221097Y0153111D01*
X0220704Y0153883D01*
X0220195Y0154583D01*
X0219583Y0155195D01*
X0218883Y0155704D01*
X0218302Y0156000D01*
X0218883Y0156296D01*
X0219583Y0156805D01*
X0220195Y0157417D01*
X0220704Y0158117D01*
X0221097Y0158889D01*
X0221365Y0159712D01*
X0221500Y0160567D01*
X0221500Y0160800D01*
X0221215Y0159253D02*
X0232250Y0159253D01*
X0232250Y0160851D02*
X0216200Y0160851D01*
X0216200Y0159253D02*
X0215800Y0159253D01*
X0215800Y0157654D02*
X0216200Y0157654D01*
X0216200Y0156056D02*
X0215800Y0156056D01*
X0215800Y0154457D02*
X0216200Y0154457D01*
X0216200Y0152859D02*
X0215800Y0152859D01*
X0215800Y0151260D02*
X0216200Y0151260D01*
X0216200Y0150800D02*
X0221500Y0150800D01*
X0221500Y0150567D01*
X0221365Y0149712D01*
X0221097Y0148889D01*
X0220704Y0148117D01*
X0220195Y0147417D01*
X0219583Y0146805D01*
X0218883Y0146296D01*
X0218302Y0146000D01*
X0218883Y0145704D01*
X0219583Y0145195D01*
X0220195Y0144583D01*
X0220704Y0143883D01*
X0221097Y0143111D01*
X0221365Y0142288D01*
X0221500Y0141433D01*
X0221500Y0141200D01*
X0216200Y0141200D01*
X0216200Y0150800D01*
X0216200Y0149662D02*
X0215800Y0149662D01*
X0215800Y0148063D02*
X0216200Y0148063D01*
X0216200Y0146465D02*
X0215800Y0146465D01*
X0215800Y0144866D02*
X0216200Y0144866D01*
X0216200Y0143268D02*
X0215800Y0143268D01*
X0215800Y0141669D02*
X0216200Y0141669D01*
X0216200Y0140800D02*
X0221500Y0140800D01*
X0221500Y0140567D01*
X0221365Y0139712D01*
X0221097Y0138889D01*
X0220704Y0138117D01*
X0220195Y0137417D01*
X0219583Y0136805D01*
X0218883Y0136296D01*
X0218302Y0136000D01*
X0218883Y0135704D01*
X0219583Y0135195D01*
X0220195Y0134583D01*
X0220704Y0133883D01*
X0221097Y0133111D01*
X0221365Y0132288D01*
X0221500Y0131433D01*
X0221500Y0131200D01*
X0216200Y0131200D01*
X0216200Y0140800D01*
X0216200Y0140070D02*
X0215800Y0140070D01*
X0215800Y0138472D02*
X0216200Y0138472D01*
X0216200Y0136873D02*
X0215800Y0136873D01*
X0215800Y0135275D02*
X0216200Y0135275D01*
X0216200Y0133676D02*
X0215800Y0133676D01*
X0215800Y0132078D02*
X0216200Y0132078D01*
X0216200Y0130800D02*
X0221500Y0130800D01*
X0221500Y0130567D01*
X0221365Y0129712D01*
X0221097Y0128889D01*
X0220704Y0128117D01*
X0220195Y0127417D01*
X0219583Y0126805D01*
X0218883Y0126296D01*
X0218302Y0126000D01*
X0218883Y0125704D01*
X0219583Y0125195D01*
X0220195Y0124583D01*
X0220704Y0123883D01*
X0221097Y0123111D01*
X0221365Y0122288D01*
X0221500Y0121433D01*
X0221500Y0121200D01*
X0216200Y0121200D01*
X0216200Y0130800D01*
X0216200Y0130479D02*
X0215800Y0130479D01*
X0215800Y0128881D02*
X0216200Y0128881D01*
X0216200Y0127282D02*
X0215800Y0127282D01*
X0215800Y0125684D02*
X0216200Y0125684D01*
X0216200Y0124085D02*
X0215800Y0124085D01*
X0215800Y0122487D02*
X0216200Y0122487D01*
X0216200Y0120888D02*
X0232250Y0120888D01*
X0232250Y0119290D02*
X0221227Y0119290D01*
X0221097Y0118889D02*
X0221365Y0119712D01*
X0221500Y0120567D01*
X0221500Y0120800D01*
X0216200Y0120800D01*
X0216200Y0111200D01*
X0221500Y0111200D01*
X0221500Y0111433D01*
X0221365Y0112288D01*
X0221097Y0113111D01*
X0220704Y0113883D01*
X0220195Y0114583D01*
X0219583Y0115195D01*
X0218883Y0115704D01*
X0218302Y0116000D01*
X0218883Y0116296D01*
X0219583Y0116805D01*
X0220195Y0117417D01*
X0220704Y0118117D01*
X0221097Y0118889D01*
X0220394Y0117691D02*
X0232250Y0117691D01*
X0232250Y0116093D02*
X0218484Y0116093D01*
X0216200Y0116093D02*
X0215800Y0116093D01*
X0215800Y0117691D02*
X0216200Y0117691D01*
X0216200Y0119290D02*
X0215800Y0119290D01*
X0215800Y0114494D02*
X0216200Y0114494D01*
X0216200Y0112896D02*
X0215800Y0112896D01*
X0215800Y0111297D02*
X0216200Y0111297D01*
X0216200Y0110800D02*
X0221500Y0110800D01*
X0221500Y0110567D01*
X0221365Y0109712D01*
X0221097Y0108889D01*
X0220704Y0108117D01*
X0220195Y0107417D01*
X0219583Y0106805D01*
X0218883Y0106296D01*
X0218302Y0106000D01*
X0218883Y0105704D01*
X0219583Y0105195D01*
X0220195Y0104583D01*
X0220704Y0103883D01*
X0221097Y0103111D01*
X0221365Y0102288D01*
X0221500Y0101433D01*
X0221500Y0101200D01*
X0216200Y0101200D01*
X0216200Y0110800D01*
X0216200Y0109699D02*
X0215800Y0109699D01*
X0215800Y0108100D02*
X0216200Y0108100D01*
X0216200Y0106502D02*
X0215800Y0106502D01*
X0215800Y0104903D02*
X0216200Y0104903D01*
X0216200Y0103305D02*
X0215800Y0103305D01*
X0215800Y0101706D02*
X0216200Y0101706D01*
X0216200Y0100800D02*
X0221500Y0100800D01*
X0221500Y0100567D01*
X0221365Y0099712D01*
X0221097Y0098889D01*
X0220704Y0098117D01*
X0220195Y0097417D01*
X0219583Y0096805D01*
X0218883Y0096296D01*
X0218302Y0096000D01*
X0218883Y0095704D01*
X0219583Y0095195D01*
X0220195Y0094583D01*
X0220704Y0093883D01*
X0221097Y0093111D01*
X0221365Y0092288D01*
X0221500Y0091433D01*
X0221500Y0091200D01*
X0216200Y0091200D01*
X0216200Y0100800D01*
X0216200Y0100108D02*
X0215800Y0100108D01*
X0215800Y0098509D02*
X0216200Y0098509D01*
X0216200Y0096911D02*
X0215800Y0096911D01*
X0215800Y0095312D02*
X0216200Y0095312D01*
X0216200Y0093714D02*
X0215800Y0093714D01*
X0215800Y0092115D02*
X0216200Y0092115D01*
X0216200Y0090800D02*
X0221500Y0090800D01*
X0221500Y0090567D01*
X0221365Y0089712D01*
X0221097Y0088889D01*
X0220704Y0088117D01*
X0220195Y0087417D01*
X0219583Y0086805D01*
X0218883Y0086296D01*
X0218302Y0086000D01*
X0218883Y0085704D01*
X0219583Y0085195D01*
X0220195Y0084583D01*
X0220704Y0083883D01*
X0221097Y0083111D01*
X0221365Y0082288D01*
X0221500Y0081433D01*
X0221500Y0081200D01*
X0216200Y0081200D01*
X0216200Y0090800D01*
X0216200Y0090517D02*
X0215800Y0090517D01*
X0215800Y0088918D02*
X0216200Y0088918D01*
X0216200Y0087320D02*
X0215800Y0087320D01*
X0215800Y0085721D02*
X0216200Y0085721D01*
X0216200Y0084123D02*
X0215800Y0084123D01*
X0215800Y0082524D02*
X0216200Y0082524D01*
X0216200Y0080926D02*
X0232250Y0080926D01*
X0232250Y0082524D02*
X0221288Y0082524D01*
X0221500Y0080800D02*
X0216200Y0080800D01*
X0216200Y0071200D01*
X0221500Y0071200D01*
X0221500Y0071433D01*
X0221365Y0072288D01*
X0221097Y0073111D01*
X0220704Y0073883D01*
X0220195Y0074583D01*
X0219583Y0075195D01*
X0218883Y0075704D01*
X0218302Y0076000D01*
X0218883Y0076296D01*
X0219583Y0076805D01*
X0220195Y0077417D01*
X0220704Y0078117D01*
X0221097Y0078889D01*
X0221365Y0079712D01*
X0221500Y0080567D01*
X0221500Y0080800D01*
X0221239Y0079327D02*
X0232250Y0079327D01*
X0232250Y0077729D02*
X0220422Y0077729D01*
X0218557Y0076130D02*
X0232250Y0076130D01*
X0232250Y0074532D02*
X0220233Y0074532D01*
X0221155Y0072933D02*
X0232250Y0072933D01*
X0232250Y0071334D02*
X0221500Y0071334D01*
X0221500Y0070800D02*
X0216200Y0070800D01*
X0216200Y0061200D01*
X0221500Y0061200D01*
X0221500Y0061433D01*
X0221365Y0062288D01*
X0221097Y0063111D01*
X0220704Y0063883D01*
X0220195Y0064583D01*
X0219583Y0065195D01*
X0218883Y0065704D01*
X0218302Y0066000D01*
X0218883Y0066296D01*
X0219583Y0066805D01*
X0220195Y0067417D01*
X0220704Y0068117D01*
X0221097Y0068889D01*
X0221365Y0069712D01*
X0221500Y0070567D01*
X0221500Y0070800D01*
X0221368Y0069736D02*
X0232250Y0069736D01*
X0232250Y0068137D02*
X0220714Y0068137D01*
X0219217Y0066539D02*
X0232250Y0066539D01*
X0232250Y0064940D02*
X0219838Y0064940D01*
X0220980Y0063342D02*
X0232250Y0063342D01*
X0232250Y0061743D02*
X0221451Y0061743D01*
X0221500Y0060800D02*
X0216200Y0060800D01*
X0216200Y0051200D01*
X0221500Y0051200D01*
X0221500Y0051433D01*
X0221365Y0052288D01*
X0221097Y0053111D01*
X0220704Y0053883D01*
X0220195Y0054583D01*
X0219583Y0055195D01*
X0218883Y0055704D01*
X0218302Y0056000D01*
X0218883Y0056296D01*
X0219583Y0056805D01*
X0220195Y0057417D01*
X0220704Y0058117D01*
X0221097Y0058889D01*
X0221365Y0059712D01*
X0221500Y0060567D01*
X0221500Y0060800D01*
X0221433Y0060145D02*
X0232250Y0060145D01*
X0232250Y0058546D02*
X0220923Y0058546D01*
X0219726Y0056948D02*
X0232250Y0056948D01*
X0232250Y0055349D02*
X0219371Y0055349D01*
X0220771Y0053751D02*
X0232250Y0053751D01*
X0232250Y0052152D02*
X0221386Y0052152D01*
X0221500Y0050800D02*
X0216200Y0050800D01*
X0216200Y0041200D01*
X0221500Y0041200D01*
X0221500Y0041433D01*
X0221365Y0042288D01*
X0221097Y0043111D01*
X0220704Y0043883D01*
X0220195Y0044583D01*
X0219583Y0045195D01*
X0218883Y0045704D01*
X0218302Y0046000D01*
X0218883Y0046296D01*
X0219583Y0046805D01*
X0220195Y0047417D01*
X0220704Y0048117D01*
X0221097Y0048889D01*
X0221365Y0049712D01*
X0221500Y0050567D01*
X0221500Y0050800D01*
X0221498Y0050554D02*
X0232250Y0050554D01*
X0232250Y0048955D02*
X0221119Y0048955D01*
X0220135Y0047357D02*
X0232250Y0047357D01*
X0232250Y0045758D02*
X0218776Y0045758D01*
X0220503Y0044160D02*
X0232250Y0044160D01*
X0232250Y0042561D02*
X0221276Y0042561D01*
X0221500Y0040800D02*
X0216200Y0040800D01*
X0216200Y0031200D01*
X0221500Y0031200D01*
X0221500Y0031433D01*
X0221365Y0032288D01*
X0221097Y0033111D01*
X0220704Y0033883D01*
X0220195Y0034583D01*
X0219583Y0035195D01*
X0218883Y0035704D01*
X0218302Y0036000D01*
X0218883Y0036296D01*
X0219583Y0036805D01*
X0220195Y0037417D01*
X0220704Y0038117D01*
X0221097Y0038889D01*
X0221365Y0039712D01*
X0221500Y0040567D01*
X0221500Y0040800D01*
X0221252Y0039364D02*
X0232250Y0039364D01*
X0232250Y0037766D02*
X0220449Y0037766D01*
X0218630Y0036167D02*
X0232250Y0036167D01*
X0232250Y0034569D02*
X0220206Y0034569D01*
X0221143Y0032970D02*
X0232250Y0032970D01*
X0232250Y0031372D02*
X0221500Y0031372D01*
X0221500Y0030800D02*
X0216200Y0030800D01*
X0216200Y0021200D01*
X0221500Y0021200D01*
X0221500Y0021433D01*
X0221365Y0022288D01*
X0221097Y0023111D01*
X0220704Y0023883D01*
X0220195Y0024583D01*
X0219583Y0025195D01*
X0218883Y0025704D01*
X0218302Y0026000D01*
X0218883Y0026296D01*
X0219583Y0026805D01*
X0220195Y0027417D01*
X0220704Y0028117D01*
X0221097Y0028889D01*
X0221365Y0029712D01*
X0221500Y0030567D01*
X0221500Y0030800D01*
X0221374Y0029773D02*
X0232250Y0029773D01*
X0232250Y0028175D02*
X0220733Y0028175D01*
X0219268Y0026576D02*
X0232250Y0026576D01*
X0232250Y0024978D02*
X0219800Y0024978D01*
X0220961Y0023379D02*
X0232250Y0023379D01*
X0232250Y0021781D02*
X0221445Y0021781D01*
X0221500Y0020800D02*
X0216200Y0020800D01*
X0216200Y0011200D01*
X0221500Y0011200D01*
X0221500Y0011433D01*
X0221365Y0012288D01*
X0221097Y0013111D01*
X0220704Y0013883D01*
X0220195Y0014583D01*
X0219583Y0015195D01*
X0218883Y0015704D01*
X0218302Y0016000D01*
X0218883Y0016296D01*
X0219583Y0016805D01*
X0220195Y0017417D01*
X0220704Y0018117D01*
X0221097Y0018889D01*
X0221365Y0019712D01*
X0221500Y0020567D01*
X0221500Y0020800D01*
X0221439Y0020182D02*
X0232250Y0020182D01*
X0232250Y0018584D02*
X0220942Y0018584D01*
X0219763Y0016985D02*
X0232250Y0016985D01*
X0232250Y0015387D02*
X0219320Y0015387D01*
X0220752Y0013788D02*
X0232250Y0013788D01*
X0232250Y0012190D02*
X0221380Y0012190D01*
X0221500Y0010800D02*
X0216200Y0010800D01*
X0216200Y0005500D01*
X0216433Y0005500D01*
X0217288Y0005635D01*
X0218111Y0005903D01*
X0218883Y0006296D01*
X0219583Y0006805D01*
X0220195Y0007417D01*
X0220704Y0008117D01*
X0221097Y0008889D01*
X0221365Y0009712D01*
X0221500Y0010567D01*
X0221500Y0010800D01*
X0221500Y0010591D02*
X0232250Y0010591D01*
X0232250Y0008993D02*
X0221131Y0008993D01*
X0220172Y0007394D02*
X0232250Y0007394D01*
X0232250Y0005796D02*
X0217781Y0005796D01*
X0216200Y0005796D02*
X0215800Y0005796D01*
X0214219Y0005796D02*
X0212250Y0005796D01*
X0212250Y0004197D02*
X0232250Y0004197D01*
X0216200Y0007394D02*
X0215800Y0007394D01*
X0215800Y0008993D02*
X0216200Y0008993D01*
X0216200Y0010591D02*
X0215800Y0010591D01*
X0215800Y0012190D02*
X0216200Y0012190D01*
X0216200Y0013788D02*
X0215800Y0013788D01*
X0215800Y0015387D02*
X0216200Y0015387D01*
X0216200Y0016985D02*
X0215800Y0016985D01*
X0215800Y0018584D02*
X0216200Y0018584D01*
X0216200Y0020182D02*
X0215800Y0020182D01*
X0215800Y0021781D02*
X0216200Y0021781D01*
X0216200Y0023379D02*
X0215800Y0023379D01*
X0215800Y0024978D02*
X0216200Y0024978D01*
X0216200Y0026576D02*
X0215800Y0026576D01*
X0215800Y0028175D02*
X0216200Y0028175D01*
X0216200Y0029773D02*
X0215800Y0029773D01*
X0215800Y0031372D02*
X0216200Y0031372D01*
X0216200Y0032970D02*
X0215800Y0032970D01*
X0215800Y0034569D02*
X0216200Y0034569D01*
X0216200Y0036167D02*
X0215800Y0036167D01*
X0215800Y0037766D02*
X0216200Y0037766D01*
X0216200Y0039364D02*
X0215800Y0039364D01*
X0216200Y0040963D02*
X0232250Y0040963D01*
X0216200Y0042561D02*
X0215800Y0042561D01*
X0215800Y0044160D02*
X0216200Y0044160D01*
X0216200Y0045758D02*
X0215800Y0045758D01*
X0215800Y0047357D02*
X0216200Y0047357D01*
X0216200Y0048955D02*
X0215800Y0048955D01*
X0215800Y0050554D02*
X0216200Y0050554D01*
X0216200Y0052152D02*
X0215800Y0052152D01*
X0215800Y0053751D02*
X0216200Y0053751D01*
X0216200Y0055349D02*
X0215800Y0055349D01*
X0215800Y0056948D02*
X0216200Y0056948D01*
X0216200Y0058546D02*
X0215800Y0058546D01*
X0215800Y0060145D02*
X0216200Y0060145D01*
X0216200Y0061743D02*
X0215800Y0061743D01*
X0215800Y0063342D02*
X0216200Y0063342D01*
X0216200Y0064940D02*
X0215800Y0064940D01*
X0215800Y0066539D02*
X0216200Y0066539D01*
X0216200Y0068137D02*
X0215800Y0068137D01*
X0215800Y0069736D02*
X0216200Y0069736D01*
X0216200Y0071334D02*
X0215800Y0071334D01*
X0215800Y0072933D02*
X0216200Y0072933D01*
X0216200Y0074532D02*
X0215800Y0074532D01*
X0215800Y0076130D02*
X0216200Y0076130D01*
X0216200Y0077729D02*
X0215800Y0077729D01*
X0215800Y0079327D02*
X0216200Y0079327D01*
X0220530Y0084123D02*
X0232250Y0084123D01*
X0232250Y0085721D02*
X0218849Y0085721D01*
X0220098Y0087320D02*
X0232250Y0087320D01*
X0232250Y0088918D02*
X0221107Y0088918D01*
X0221492Y0090517D02*
X0232250Y0090517D01*
X0232250Y0092115D02*
X0221392Y0092115D01*
X0220790Y0093714D02*
X0232250Y0093714D01*
X0232250Y0095312D02*
X0219422Y0095312D01*
X0219689Y0096911D02*
X0232250Y0096911D01*
X0232250Y0098509D02*
X0220904Y0098509D01*
X0221427Y0100108D02*
X0232250Y0100108D01*
X0232250Y0101706D02*
X0221457Y0101706D01*
X0220998Y0103305D02*
X0232250Y0103305D01*
X0232250Y0104903D02*
X0219875Y0104903D01*
X0219166Y0106502D02*
X0232250Y0106502D01*
X0232250Y0108100D02*
X0220692Y0108100D01*
X0221360Y0109699D02*
X0232250Y0109699D01*
X0232250Y0111297D02*
X0221500Y0111297D01*
X0221167Y0112896D02*
X0232250Y0112896D01*
X0232250Y0114494D02*
X0220260Y0114494D01*
X0221300Y0122487D02*
X0232250Y0122487D01*
X0232250Y0124085D02*
X0220557Y0124085D01*
X0218910Y0125684D02*
X0232250Y0125684D01*
X0232250Y0127282D02*
X0220061Y0127282D01*
X0221093Y0128881D02*
X0232250Y0128881D01*
X0232250Y0130479D02*
X0221486Y0130479D01*
X0221398Y0132078D02*
X0232250Y0132078D01*
X0232250Y0133676D02*
X0220809Y0133676D01*
X0219473Y0135275D02*
X0232250Y0135275D01*
X0232250Y0136873D02*
X0219652Y0136873D01*
X0220885Y0138472D02*
X0232250Y0138472D01*
X0232250Y0140070D02*
X0221421Y0140070D01*
X0221463Y0141669D02*
X0232250Y0141669D01*
X0232250Y0143268D02*
X0221017Y0143268D01*
X0219912Y0144866D02*
X0232250Y0144866D01*
X0232250Y0146465D02*
X0219115Y0146465D01*
X0220665Y0148063D02*
X0232250Y0148063D01*
X0232250Y0149662D02*
X0221348Y0149662D01*
X0221500Y0151260D02*
X0232250Y0151260D01*
X0232250Y0152859D02*
X0221179Y0152859D01*
X0220287Y0154457D02*
X0232250Y0154457D01*
X0232250Y0156056D02*
X0218411Y0156056D01*
X0220367Y0157654D02*
X0232250Y0157654D01*
X0216200Y0162450D02*
X0215800Y0162450D01*
X0215800Y0164048D02*
X0216200Y0164048D01*
X0216200Y0165647D02*
X0215800Y0165647D01*
X0215800Y0167245D02*
X0216200Y0167245D01*
X0216200Y0168844D02*
X0215800Y0168844D01*
X0215800Y0170442D02*
X0216200Y0170442D01*
X0216200Y0172041D02*
X0215800Y0172041D01*
X0215800Y0173639D02*
X0216200Y0173639D01*
X0216200Y0175238D02*
X0215800Y0175238D01*
X0212476Y0175238D02*
X0212250Y0175238D01*
X0232250Y0194420D02*
X0185080Y0194420D01*
X0189884Y0208226D02*
X0189121Y0208474D01*
X0188406Y0208838D01*
X0187756Y0209310D01*
X0187189Y0209878D01*
X0186717Y0210527D01*
X0186352Y0211242D01*
X0186104Y0212006D01*
X0185979Y0212799D01*
X0185979Y0213100D01*
X0190979Y0213100D01*
X0190979Y0208100D01*
X0190677Y0208100D01*
X0189884Y0208226D01*
X0190979Y0208806D02*
X0191179Y0208806D01*
X0191179Y0210405D02*
X0190979Y0210405D01*
X0190979Y0212003D02*
X0191179Y0212003D01*
X0193690Y0208806D02*
X0194750Y0208806D01*
X0188468Y0208806D02*
X0137250Y0208806D01*
X0137250Y0210405D02*
X0186805Y0210405D01*
X0186105Y0212003D02*
X0137250Y0212003D01*
X0137250Y0213602D02*
X0143453Y0213602D01*
X0124750Y0208806D02*
X0123690Y0208806D01*
X0121179Y0208806D02*
X0120979Y0208806D01*
X0120979Y0208100D02*
X0120979Y0213100D01*
X0115979Y0213100D01*
X0115979Y0212799D01*
X0116104Y0212006D01*
X0116352Y0211242D01*
X0116717Y0210527D01*
X0117189Y0209878D01*
X0117756Y0209310D01*
X0118406Y0208838D01*
X0119121Y0208474D01*
X0119884Y0208226D01*
X0120677Y0208100D01*
X0120979Y0208100D01*
X0120979Y0210405D02*
X0121179Y0210405D01*
X0121179Y0212003D02*
X0120979Y0212003D01*
X0118468Y0208806D02*
X0089100Y0208806D01*
X0089105Y0208810D02*
X0089440Y0209145D01*
X0089677Y0209555D01*
X0089800Y0210013D01*
X0089800Y0213500D01*
X0084750Y0213500D01*
X0084750Y0213500D01*
X0084750Y0208450D01*
X0088237Y0208450D01*
X0088695Y0208573D01*
X0089105Y0208810D01*
X0089800Y0210405D02*
X0116805Y0210405D01*
X0116105Y0212003D02*
X0089800Y0212003D01*
X0089800Y0213602D02*
X0115979Y0213602D01*
X0116374Y0215201D02*
X0089800Y0215201D01*
X0089800Y0216799D02*
X0117250Y0216799D01*
X0116102Y0218398D02*
X0088746Y0218398D01*
X0084750Y0213500D02*
X0084750Y0213500D01*
X0084750Y0213500D01*
X0084750Y0208450D01*
X0081263Y0208450D01*
X0080805Y0208573D01*
X0080395Y0208810D01*
X0080060Y0209145D01*
X0079823Y0209555D01*
X0079700Y0210013D01*
X0079700Y0213500D01*
X0084750Y0213500D01*
X0084750Y0212003D02*
X0084750Y0212003D01*
X0084750Y0210405D02*
X0084750Y0210405D01*
X0084750Y0208806D02*
X0084750Y0208806D01*
X0080400Y0208806D02*
X0051000Y0208806D01*
X0051000Y0207208D02*
X0232250Y0207208D01*
X0232250Y0205609D02*
X0051000Y0205609D01*
X0051000Y0204011D02*
X0232250Y0204011D01*
X0232250Y0202412D02*
X0051000Y0202412D01*
X0051000Y0200814D02*
X0232250Y0200814D01*
X0232250Y0199215D02*
X0051000Y0199215D01*
X0051000Y0197617D02*
X0232250Y0197617D01*
X0232250Y0196018D02*
X0051000Y0196018D01*
X0051000Y0210405D02*
X0058492Y0210405D01*
X0058117Y0210596D02*
X0058889Y0210203D01*
X0059712Y0209935D01*
X0060567Y0209800D01*
X0060800Y0209800D01*
X0060800Y0215100D01*
X0055500Y0215100D01*
X0055500Y0214867D01*
X0055635Y0214012D01*
X0055903Y0213189D01*
X0056296Y0212417D01*
X0056805Y0211717D01*
X0057417Y0211105D01*
X0058117Y0210596D01*
X0056597Y0212003D02*
X0051000Y0212003D01*
X0051000Y0213602D02*
X0055769Y0213602D01*
X0055704Y0216799D02*
X0051000Y0216799D01*
X0051000Y0215201D02*
X0060800Y0215201D01*
X0061200Y0215201D02*
X0079700Y0215201D01*
X0079700Y0216799D02*
X0066296Y0216799D01*
X0066500Y0215100D02*
X0061200Y0215100D01*
X0061200Y0209800D01*
X0061433Y0209800D01*
X0062288Y0209935D01*
X0063111Y0210203D01*
X0063883Y0210596D01*
X0064583Y0211105D01*
X0065195Y0211717D01*
X0065704Y0212417D01*
X0066097Y0213189D01*
X0066365Y0214012D01*
X0066500Y0214867D01*
X0066500Y0215100D01*
X0066231Y0213602D02*
X0079700Y0213602D01*
X0079700Y0212003D02*
X0065403Y0212003D01*
X0063508Y0210405D02*
X0079700Y0210405D01*
X0080754Y0218398D02*
X0065548Y0218398D01*
X0061200Y0213602D02*
X0060800Y0213602D01*
X0060800Y0212003D02*
X0061200Y0212003D01*
X0061200Y0210405D02*
X0060800Y0210405D01*
X0056452Y0218398D02*
X0051000Y0218398D01*
X0183547Y0213602D02*
X0185979Y0213602D01*
D26*
X0194750Y0151256D02*
X0205744Y0151256D01*
X0206000Y0151000D01*
X0205744Y0141256D02*
X0206000Y0141000D01*
X0205744Y0141256D02*
X0194750Y0141256D01*
X0194750Y0131256D02*
X0205744Y0131256D01*
X0206000Y0131000D01*
X0205744Y0121256D02*
X0194750Y0121256D01*
X0194750Y0111256D02*
X0205744Y0111256D01*
X0206000Y0111000D01*
X0206000Y0121000D02*
X0205744Y0121256D01*
X0216000Y0101000D02*
X0211138Y0096138D01*
X0205744Y0071256D02*
X0194750Y0071256D01*
X0194750Y0061256D02*
X0205744Y0061256D01*
X0206000Y0061000D01*
X0205744Y0051256D02*
X0194750Y0051256D01*
X0194750Y0041256D02*
X0205744Y0041256D01*
X0206000Y0041000D01*
X0206000Y0051000D02*
X0205744Y0051256D01*
X0205744Y0031256D02*
X0194750Y0031256D01*
X0194750Y0021256D02*
X0205744Y0021256D01*
X0206000Y0021000D01*
X0206000Y0031000D02*
X0205744Y0031256D01*
X0195862Y0016138D02*
X0196000Y0016000D01*
X0195862Y0016138D02*
X0194750Y0016138D01*
X0206000Y0071000D02*
X0205744Y0071256D01*
X0095075Y0089513D02*
X0094750Y0089837D01*
X0094750Y0094750D01*
X0087250Y0102250D01*
X0059750Y0102250D01*
X0046000Y0116000D01*
X0046000Y0191000D01*
X0036000Y0201000D01*
X0036000Y0191000D02*
X0043500Y0183500D01*
X0043500Y0114750D01*
X0058500Y0099750D01*
X0086000Y0099750D01*
X0092516Y0093234D01*
X0092516Y0089513D01*
X0026000Y0191000D02*
X0021000Y0196000D01*
X0026000Y0201000D02*
X0021000Y0206000D01*
D27*
X0026000Y0201000D02*
X0036000Y0201000D01*
X0036000Y0191000D02*
X0026000Y0191000D01*
X0108500Y0103707D02*
X0108500Y0101000D01*
X0108500Y0098293D01*
X0098500Y0089750D02*
X0097871Y0089750D01*
X0097634Y0089513D01*
X0194750Y0091256D02*
X0205744Y0091256D01*
X0206000Y0091000D01*
X0211000Y0086000D02*
X0194888Y0086000D01*
X0194750Y0086138D01*
X0194750Y0081256D02*
X0205744Y0081256D01*
X0206000Y0081000D01*
X0211000Y0076000D02*
X0194888Y0076000D01*
X0194750Y0076138D01*
X0194750Y0066138D02*
X0194888Y0066000D01*
X0211000Y0066000D01*
X0216000Y0071000D01*
X0211000Y0076000D02*
X0216000Y0081000D01*
X0211000Y0086000D02*
X0216000Y0091000D01*
X0211000Y0096000D02*
X0194888Y0096000D01*
X0194750Y0096138D01*
X0194750Y0101256D02*
X0205744Y0101256D01*
X0206000Y0101000D01*
X0211000Y0096000D02*
X0216000Y0101000D01*
X0211000Y0106000D02*
X0194888Y0106000D01*
X0194750Y0106138D01*
X0194888Y0116000D02*
X0194750Y0116138D01*
X0194888Y0116000D02*
X0211000Y0116000D01*
X0216000Y0121000D01*
X0211000Y0126000D02*
X0194888Y0126000D01*
X0194750Y0126138D01*
X0194888Y0136000D02*
X0194750Y0136138D01*
X0194888Y0136000D02*
X0211000Y0136000D01*
X0216000Y0141000D01*
X0211000Y0146000D02*
X0194888Y0146000D01*
X0194750Y0146138D01*
X0194888Y0156000D02*
X0194750Y0156138D01*
X0194888Y0156000D02*
X0211000Y0156000D01*
X0216000Y0161000D01*
X0211000Y0166000D02*
X0194888Y0166000D01*
X0194750Y0166138D01*
X0211000Y0166000D02*
X0216000Y0171000D01*
X0216000Y0151000D02*
X0211000Y0146000D01*
X0216000Y0131000D02*
X0211000Y0126000D01*
X0216000Y0111000D02*
X0211000Y0106000D01*
X0216000Y0061000D02*
X0211000Y0056000D01*
X0194888Y0056000D01*
X0194750Y0056138D01*
X0194750Y0046138D02*
X0194888Y0046000D01*
X0211000Y0046000D01*
X0216000Y0051000D01*
X0216000Y0041000D02*
X0211000Y0036000D01*
X0194888Y0036000D01*
X0194750Y0036138D01*
X0194750Y0026138D02*
X0194888Y0026000D01*
X0211000Y0026000D01*
X0216000Y0031000D01*
X0216000Y0021000D02*
X0211000Y0016000D01*
X0194888Y0016000D01*
X0194750Y0016138D01*
D28*
X0150500Y0101000D02*
X0108500Y0101000D01*
X0102250Y0101000D01*
X0098500Y0097250D01*
X0098500Y0089750D01*
M02*
