G75*
%MOIN*%
%OFA0B0*%
%FSLAX25Y25*%
%IPPOS*%
%LPD*%
%AMOC8*
5,1,8,0,0,1.08239X$1,22.5*
%
%ADD10C,0.00000*%
%ADD11C,0.00600*%
%ADD12C,0.00400*%
%ADD13C,0.00300*%
%ADD14C,0.00100*%
%ADD15R,0.03050X0.00500*%
%ADD16C,0.00800*%
%ADD17C,0.00500*%
D10*
X0001000Y0001000D02*
X0001000Y0251000D01*
X0236000Y0251000D01*
X0236000Y0001000D01*
X0001000Y0001000D01*
D11*
X0048638Y0011069D02*
X0048638Y0013431D01*
X0053362Y0013431D02*
X0053362Y0011069D01*
X0054819Y0018638D02*
X0057181Y0018638D01*
X0057181Y0023362D02*
X0054819Y0023362D01*
X0064819Y0026138D02*
X0067181Y0026138D01*
X0067181Y0030862D02*
X0064819Y0030862D01*
X0074819Y0033638D02*
X0077181Y0033638D01*
X0077181Y0038362D02*
X0074819Y0038362D01*
X0084819Y0041138D02*
X0087181Y0041138D01*
X0087181Y0045862D02*
X0084819Y0045862D01*
X0094819Y0048638D02*
X0097181Y0048638D01*
X0097181Y0053362D02*
X0094819Y0053362D01*
X0104819Y0056138D02*
X0107181Y0056138D01*
X0107181Y0060862D02*
X0104819Y0060862D01*
X0114819Y0063638D02*
X0117181Y0063638D01*
X0117181Y0068362D02*
X0114819Y0068362D01*
X0124819Y0071138D02*
X0127181Y0071138D01*
X0127181Y0075862D02*
X0124819Y0075862D01*
X0132368Y0086300D02*
X0131300Y0087368D01*
X0132368Y0086300D02*
X0134503Y0086300D01*
X0135570Y0087368D01*
X0135570Y0089503D01*
X0134503Y0090570D01*
X0133435Y0090570D01*
X0131300Y0089503D01*
X0131300Y0092705D01*
X0135570Y0092705D01*
X0137745Y0092705D02*
X0137745Y0088435D01*
X0139881Y0086300D01*
X0142016Y0088435D01*
X0142016Y0092705D01*
X0142049Y0107550D02*
X0144184Y0109685D01*
X0144184Y0113955D01*
X0139914Y0113955D02*
X0139914Y0109685D01*
X0142049Y0107550D01*
X0137739Y0108618D02*
X0137739Y0109685D01*
X0136671Y0110753D01*
X0135603Y0110753D01*
X0136671Y0110753D02*
X0137739Y0111820D01*
X0137739Y0112888D01*
X0136671Y0113955D01*
X0134536Y0113955D01*
X0133468Y0112888D01*
X0133468Y0108618D02*
X0134536Y0107550D01*
X0136671Y0107550D01*
X0137739Y0108618D01*
X0131313Y0108618D02*
X0131313Y0107550D01*
X0130245Y0107550D01*
X0130245Y0108618D01*
X0131313Y0108618D01*
X0128070Y0108618D02*
X0128070Y0109685D01*
X0127003Y0110753D01*
X0125935Y0110753D01*
X0127003Y0110753D02*
X0128070Y0111820D01*
X0128070Y0112888D01*
X0127003Y0113955D01*
X0124868Y0113955D01*
X0123800Y0112888D01*
X0123800Y0108618D02*
X0124868Y0107550D01*
X0127003Y0107550D01*
X0128070Y0108618D01*
X0127181Y0126138D02*
X0124819Y0126138D01*
X0124819Y0130862D02*
X0127181Y0130862D01*
X0117181Y0133638D02*
X0114819Y0133638D01*
X0114819Y0138362D02*
X0117181Y0138362D01*
X0107181Y0141138D02*
X0104819Y0141138D01*
X0104819Y0145862D02*
X0107181Y0145862D01*
X0097181Y0148638D02*
X0094819Y0148638D01*
X0094819Y0153362D02*
X0097181Y0153362D01*
X0087181Y0156138D02*
X0084819Y0156138D01*
X0084819Y0160862D02*
X0087181Y0160862D01*
X0077181Y0163638D02*
X0074819Y0163638D01*
X0074819Y0168362D02*
X0077181Y0168362D01*
X0067181Y0171138D02*
X0064819Y0171138D01*
X0064819Y0175862D02*
X0067181Y0175862D01*
X0057181Y0178638D02*
X0054819Y0178638D01*
X0054819Y0183362D02*
X0057181Y0183362D01*
X0091300Y0196300D02*
X0091300Y0202705D01*
X0091300Y0199503D02*
X0095570Y0199503D01*
X0097745Y0197368D02*
X0098813Y0198435D01*
X0102016Y0198435D01*
X0102016Y0199503D02*
X0102016Y0196300D01*
X0098813Y0196300D01*
X0097745Y0197368D01*
X0095570Y0196300D02*
X0095570Y0202705D01*
X0098813Y0200570D02*
X0100948Y0200570D01*
X0102016Y0199503D01*
X0104191Y0200570D02*
X0107394Y0200570D01*
X0108461Y0199503D01*
X0108461Y0197368D01*
X0107394Y0196300D01*
X0104191Y0196300D01*
X0104191Y0194165D02*
X0104191Y0200570D01*
X0110636Y0200570D02*
X0112772Y0200570D01*
X0111704Y0201638D02*
X0111704Y0197368D01*
X0112772Y0196300D01*
X0114933Y0196300D02*
X0117069Y0196300D01*
X0116001Y0196300D02*
X0116001Y0200570D01*
X0114933Y0200570D01*
X0116001Y0202705D02*
X0116001Y0203773D01*
X0119230Y0199503D02*
X0119230Y0197368D01*
X0120298Y0196300D01*
X0123501Y0196300D01*
X0123501Y0200570D02*
X0120298Y0200570D01*
X0119230Y0199503D01*
X0132121Y0198435D02*
X0134257Y0196300D01*
X0136392Y0198435D01*
X0136392Y0202705D01*
X0138567Y0199503D02*
X0139635Y0200570D01*
X0141770Y0200570D01*
X0142837Y0199503D01*
X0142837Y0198435D01*
X0138567Y0198435D01*
X0138567Y0197368D02*
X0138567Y0199503D01*
X0138567Y0197368D02*
X0139635Y0196300D01*
X0141770Y0196300D01*
X0145012Y0196300D02*
X0148215Y0196300D01*
X0149283Y0197368D01*
X0148215Y0198435D01*
X0146080Y0198435D01*
X0145012Y0199503D01*
X0146080Y0200570D01*
X0149283Y0200570D01*
X0151458Y0200570D02*
X0153593Y0200570D01*
X0152526Y0201638D02*
X0152526Y0197368D01*
X0153593Y0196300D01*
X0162200Y0198435D02*
X0164336Y0196300D01*
X0166471Y0198435D01*
X0166471Y0202705D01*
X0168646Y0200570D02*
X0170781Y0202705D01*
X0170781Y0196300D01*
X0168646Y0196300D02*
X0172916Y0196300D01*
X0162200Y0198435D02*
X0162200Y0202705D01*
X0132121Y0202705D02*
X0132121Y0198435D01*
X0203045Y0189516D02*
X0203045Y0185245D01*
X0204112Y0183070D02*
X0203045Y0182003D01*
X0203045Y0178800D01*
X0209450Y0178800D01*
X0207315Y0178800D02*
X0207315Y0182003D01*
X0206247Y0183070D01*
X0204112Y0183070D01*
X0208382Y0185245D02*
X0209450Y0185245D01*
X0209450Y0189516D01*
X0213045Y0189516D02*
X0217315Y0189516D01*
X0219450Y0187381D01*
X0217315Y0185245D01*
X0213045Y0185245D01*
X0213045Y0183070D02*
X0213045Y0178800D01*
X0216247Y0178800D01*
X0215180Y0180935D01*
X0215180Y0182003D01*
X0216247Y0183070D01*
X0218382Y0183070D01*
X0219450Y0182003D01*
X0219450Y0179868D01*
X0218382Y0178800D01*
X0208382Y0185245D02*
X0204112Y0189516D01*
X0203045Y0189516D01*
X0110862Y0108431D02*
X0110862Y0106069D01*
X0106138Y0106069D02*
X0106138Y0108431D01*
X0098577Y0109987D02*
X0098577Y0092013D01*
X0106138Y0093569D02*
X0106138Y0095931D01*
X0110862Y0095931D02*
X0110862Y0093569D01*
X0093277Y0105800D02*
X0093279Y0105884D01*
X0093285Y0105969D01*
X0093295Y0106052D01*
X0093309Y0106136D01*
X0093326Y0106218D01*
X0093348Y0106300D01*
X0093373Y0106380D01*
X0093402Y0106459D01*
X0093435Y0106537D01*
X0093471Y0106613D01*
X0093511Y0106688D01*
X0093555Y0106760D01*
X0093601Y0106831D01*
X0093651Y0106899D01*
X0093704Y0106964D01*
X0093760Y0107027D01*
X0093819Y0107088D01*
X0093881Y0107145D01*
X0093945Y0107200D01*
X0094012Y0107251D01*
X0094081Y0107300D01*
X0094153Y0107345D01*
X0094226Y0107386D01*
X0094301Y0107424D01*
X0094378Y0107459D01*
X0094457Y0107490D01*
X0094537Y0107517D01*
X0094618Y0107540D01*
X0094700Y0107560D01*
X0094783Y0107576D01*
X0094866Y0107588D01*
X0094951Y0107596D01*
X0095035Y0107600D01*
X0095119Y0107600D01*
X0095203Y0107596D01*
X0095288Y0107588D01*
X0095371Y0107576D01*
X0095454Y0107560D01*
X0095536Y0107540D01*
X0095617Y0107517D01*
X0095697Y0107490D01*
X0095776Y0107459D01*
X0095853Y0107424D01*
X0095928Y0107386D01*
X0096001Y0107345D01*
X0096073Y0107300D01*
X0096142Y0107251D01*
X0096209Y0107200D01*
X0096273Y0107145D01*
X0096335Y0107088D01*
X0096394Y0107027D01*
X0096450Y0106964D01*
X0096503Y0106899D01*
X0096553Y0106831D01*
X0096599Y0106760D01*
X0096643Y0106688D01*
X0096683Y0106613D01*
X0096719Y0106537D01*
X0096752Y0106459D01*
X0096781Y0106380D01*
X0096806Y0106300D01*
X0096828Y0106218D01*
X0096845Y0106136D01*
X0096859Y0106052D01*
X0096869Y0105969D01*
X0096875Y0105884D01*
X0096877Y0105800D01*
X0096875Y0105716D01*
X0096869Y0105631D01*
X0096859Y0105548D01*
X0096845Y0105464D01*
X0096828Y0105382D01*
X0096806Y0105300D01*
X0096781Y0105220D01*
X0096752Y0105141D01*
X0096719Y0105063D01*
X0096683Y0104987D01*
X0096643Y0104912D01*
X0096599Y0104840D01*
X0096553Y0104769D01*
X0096503Y0104701D01*
X0096450Y0104636D01*
X0096394Y0104573D01*
X0096335Y0104512D01*
X0096273Y0104455D01*
X0096209Y0104400D01*
X0096142Y0104349D01*
X0096073Y0104300D01*
X0096001Y0104255D01*
X0095928Y0104214D01*
X0095853Y0104176D01*
X0095776Y0104141D01*
X0095697Y0104110D01*
X0095617Y0104083D01*
X0095536Y0104060D01*
X0095454Y0104040D01*
X0095371Y0104024D01*
X0095288Y0104012D01*
X0095203Y0104004D01*
X0095119Y0104000D01*
X0095035Y0104000D01*
X0094951Y0104004D01*
X0094866Y0104012D01*
X0094783Y0104024D01*
X0094700Y0104040D01*
X0094618Y0104060D01*
X0094537Y0104083D01*
X0094457Y0104110D01*
X0094378Y0104141D01*
X0094301Y0104176D01*
X0094226Y0104214D01*
X0094153Y0104255D01*
X0094081Y0104300D01*
X0094012Y0104349D01*
X0093945Y0104400D01*
X0093881Y0104455D01*
X0093819Y0104512D01*
X0093760Y0104573D01*
X0093704Y0104636D01*
X0093651Y0104701D01*
X0093601Y0104769D01*
X0093555Y0104840D01*
X0093511Y0104912D01*
X0093471Y0104987D01*
X0093435Y0105063D01*
X0093402Y0105141D01*
X0093373Y0105220D01*
X0093348Y0105300D01*
X0093326Y0105382D01*
X0093309Y0105464D01*
X0093295Y0105548D01*
X0093285Y0105631D01*
X0093279Y0105716D01*
X0093277Y0105800D01*
X0063423Y0109987D02*
X0063423Y0092013D01*
X0108435Y0032705D02*
X0110570Y0032705D01*
X0109503Y0032705D02*
X0109503Y0027368D01*
X0108435Y0026300D01*
X0107368Y0026300D01*
X0106300Y0027368D01*
X0112745Y0027368D02*
X0112745Y0026300D01*
X0113813Y0026300D01*
X0113813Y0027368D01*
X0112745Y0027368D01*
X0112414Y0022705D02*
X0115616Y0022705D01*
X0116684Y0021638D01*
X0116684Y0019503D01*
X0115616Y0018435D01*
X0112414Y0018435D01*
X0114549Y0018435D02*
X0116684Y0016300D01*
X0118859Y0017368D02*
X0119927Y0018435D01*
X0123130Y0018435D01*
X0123130Y0019503D02*
X0123130Y0016300D01*
X0119927Y0016300D01*
X0118859Y0017368D01*
X0119927Y0020570D02*
X0122062Y0020570D01*
X0123130Y0019503D01*
X0125305Y0020570D02*
X0125305Y0016300D01*
X0125305Y0020570D02*
X0128507Y0020570D01*
X0129575Y0019503D01*
X0129575Y0016300D01*
X0131750Y0016300D02*
X0131750Y0020570D01*
X0132818Y0020570D01*
X0133885Y0019503D01*
X0134953Y0020570D01*
X0136021Y0019503D01*
X0136021Y0016300D01*
X0133885Y0016300D02*
X0133885Y0019503D01*
X0138196Y0020570D02*
X0138196Y0017368D01*
X0139263Y0016300D01*
X0142466Y0016300D01*
X0142466Y0020570D01*
X0144641Y0020570D02*
X0146776Y0020570D01*
X0145709Y0021638D02*
X0145709Y0017368D01*
X0146776Y0016300D01*
X0148938Y0016300D02*
X0148938Y0022705D01*
X0150006Y0020570D02*
X0148938Y0019503D01*
X0150006Y0020570D02*
X0152141Y0020570D01*
X0153209Y0019503D01*
X0153209Y0016300D01*
X0155384Y0017368D02*
X0155384Y0020570D01*
X0155384Y0017368D02*
X0156451Y0016300D01*
X0159654Y0016300D01*
X0159654Y0020570D01*
X0158938Y0026300D02*
X0158938Y0030570D01*
X0158938Y0028435D02*
X0161073Y0030570D01*
X0162141Y0030570D01*
X0156763Y0029503D02*
X0156763Y0028435D01*
X0152493Y0028435D01*
X0152493Y0027368D02*
X0152493Y0029503D01*
X0153560Y0030570D01*
X0155695Y0030570D01*
X0156763Y0029503D01*
X0155695Y0026300D02*
X0153560Y0026300D01*
X0152493Y0027368D01*
X0150318Y0027368D02*
X0149250Y0028435D01*
X0147115Y0028435D01*
X0146047Y0029503D01*
X0147115Y0030570D01*
X0150318Y0030570D01*
X0150318Y0027368D02*
X0149250Y0026300D01*
X0146047Y0026300D01*
X0143885Y0026300D02*
X0141750Y0026300D01*
X0142818Y0026300D02*
X0142818Y0030570D01*
X0141750Y0030570D01*
X0142818Y0032705D02*
X0142818Y0033773D01*
X0145298Y0036300D02*
X0144230Y0037368D01*
X0145298Y0038435D01*
X0148501Y0038435D01*
X0148501Y0039503D02*
X0148501Y0036300D01*
X0145298Y0036300D01*
X0145298Y0040570D02*
X0147433Y0040570D01*
X0148501Y0039503D01*
X0150676Y0039503D02*
X0151744Y0040570D01*
X0154946Y0040570D01*
X0153879Y0038435D02*
X0154946Y0037368D01*
X0153879Y0036300D01*
X0150676Y0036300D01*
X0151744Y0038435D02*
X0150676Y0039503D01*
X0151744Y0038435D02*
X0153879Y0038435D01*
X0157121Y0037368D02*
X0158189Y0038435D01*
X0161392Y0038435D01*
X0161392Y0039503D02*
X0161392Y0036300D01*
X0158189Y0036300D01*
X0157121Y0037368D01*
X0158189Y0040570D02*
X0160324Y0040570D01*
X0161392Y0039503D01*
X0163567Y0039503D02*
X0163567Y0037368D01*
X0164635Y0036300D01*
X0167837Y0036300D01*
X0167837Y0042705D01*
X0167837Y0040570D02*
X0164635Y0040570D01*
X0163567Y0039503D01*
X0163879Y0046300D02*
X0160676Y0048435D01*
X0163879Y0050570D01*
X0166047Y0052705D02*
X0167115Y0052705D01*
X0167115Y0046300D01*
X0168182Y0046300D02*
X0166047Y0046300D01*
X0170344Y0047368D02*
X0170344Y0049503D01*
X0171412Y0050570D01*
X0173547Y0050570D01*
X0174615Y0049503D01*
X0174615Y0048435D01*
X0170344Y0048435D01*
X0170344Y0047368D02*
X0171412Y0046300D01*
X0173547Y0046300D01*
X0167427Y0056300D02*
X0167427Y0059503D01*
X0166359Y0060570D01*
X0163156Y0060570D01*
X0163156Y0056300D01*
X0160994Y0056300D02*
X0158859Y0056300D01*
X0159927Y0056300D02*
X0159927Y0060570D01*
X0158859Y0060570D01*
X0159927Y0062705D02*
X0159927Y0063773D01*
X0152414Y0062705D02*
X0152414Y0056300D01*
X0156684Y0056300D01*
X0160676Y0052705D02*
X0160676Y0046300D01*
X0158507Y0050570D02*
X0157440Y0050570D01*
X0155305Y0048435D01*
X0155305Y0046300D02*
X0155305Y0050570D01*
X0153130Y0050570D02*
X0153130Y0046300D01*
X0149927Y0046300D01*
X0148859Y0047368D01*
X0148859Y0050570D01*
X0146684Y0050570D02*
X0146684Y0051638D01*
X0145616Y0052705D01*
X0142414Y0052705D01*
X0142414Y0046300D01*
X0145616Y0046300D01*
X0146684Y0047368D01*
X0146684Y0048435D01*
X0145616Y0049503D01*
X0142414Y0049503D01*
X0145616Y0049503D02*
X0146684Y0050570D01*
X0143813Y0056300D02*
X0142745Y0056300D01*
X0142745Y0057368D01*
X0143813Y0057368D01*
X0143813Y0056300D01*
X0140570Y0057368D02*
X0139503Y0056300D01*
X0137368Y0056300D01*
X0136300Y0057368D01*
X0137368Y0059503D02*
X0139503Y0059503D01*
X0140570Y0058435D01*
X0140570Y0057368D01*
X0140570Y0061638D02*
X0139503Y0062705D01*
X0137368Y0062705D01*
X0136300Y0061638D01*
X0136300Y0060570D01*
X0137368Y0059503D01*
X0130570Y0052705D02*
X0130570Y0046300D01*
X0132745Y0046300D02*
X0133813Y0046300D01*
X0133813Y0047368D01*
X0132745Y0047368D01*
X0132745Y0046300D01*
X0132414Y0042705D02*
X0135616Y0042705D01*
X0136684Y0041638D01*
X0136684Y0039503D01*
X0135616Y0038435D01*
X0132414Y0038435D01*
X0132414Y0036300D02*
X0132414Y0042705D01*
X0126300Y0046300D02*
X0126300Y0052705D01*
X0128435Y0050570D01*
X0130570Y0052705D01*
X0120570Y0042705D02*
X0120570Y0038435D01*
X0118435Y0036300D01*
X0116300Y0038435D01*
X0116300Y0042705D01*
X0122745Y0037368D02*
X0123813Y0037368D01*
X0123813Y0036300D01*
X0122745Y0036300D01*
X0122745Y0037368D01*
X0123481Y0032705D02*
X0122414Y0031638D01*
X0122414Y0030570D01*
X0123481Y0029503D01*
X0125616Y0029503D01*
X0126684Y0028435D01*
X0126684Y0027368D01*
X0125616Y0026300D01*
X0123481Y0026300D01*
X0122414Y0027368D01*
X0123481Y0032705D02*
X0125616Y0032705D01*
X0126684Y0031638D01*
X0128859Y0030570D02*
X0132062Y0030570D01*
X0133130Y0029503D01*
X0133130Y0027368D01*
X0132062Y0026300D01*
X0128859Y0026300D01*
X0128859Y0024165D02*
X0128859Y0030570D01*
X0135305Y0029503D02*
X0136372Y0030570D01*
X0138507Y0030570D01*
X0139575Y0029503D01*
X0139575Y0028435D01*
X0135305Y0028435D01*
X0135305Y0027368D02*
X0135305Y0029503D01*
X0135305Y0027368D02*
X0136372Y0026300D01*
X0138507Y0026300D01*
X0138859Y0036300D02*
X0138859Y0040570D01*
X0138859Y0038435D02*
X0140994Y0040570D01*
X0142062Y0040570D01*
X0112414Y0022705D02*
X0112414Y0016300D01*
X0103813Y0016300D02*
X0102745Y0016300D01*
X0102745Y0017368D01*
X0103813Y0017368D01*
X0103813Y0016300D01*
X0100570Y0017368D02*
X0099503Y0016300D01*
X0097368Y0016300D01*
X0096300Y0017368D01*
X0097368Y0019503D02*
X0096300Y0020570D01*
X0096300Y0021638D01*
X0097368Y0022705D01*
X0099503Y0022705D01*
X0100570Y0021638D01*
X0099503Y0019503D02*
X0100570Y0018435D01*
X0100570Y0017368D01*
X0099503Y0019503D02*
X0097368Y0019503D01*
D12*
X0193175Y0020823D02*
X0193175Y0016177D01*
X0196325Y0016177D02*
X0196325Y0020823D01*
X0196325Y0026177D02*
X0196325Y0030823D01*
X0193175Y0030823D02*
X0193175Y0026177D01*
X0193175Y0036177D02*
X0193175Y0040823D01*
X0196325Y0040823D02*
X0196325Y0036177D01*
X0196325Y0046177D02*
X0196325Y0050823D01*
X0193175Y0050823D02*
X0193175Y0046177D01*
X0193175Y0056177D02*
X0193175Y0060823D01*
X0196325Y0060823D02*
X0196325Y0056177D01*
X0196325Y0066177D02*
X0196325Y0070823D01*
X0193175Y0070823D02*
X0193175Y0066177D01*
X0193175Y0076177D02*
X0193175Y0080823D01*
X0196325Y0080823D02*
X0196325Y0076177D01*
X0196325Y0086177D02*
X0196325Y0090823D01*
X0193175Y0090823D02*
X0193175Y0086177D01*
X0193175Y0096177D02*
X0193175Y0100823D01*
X0196325Y0100823D02*
X0196325Y0096177D01*
X0196325Y0106177D02*
X0196325Y0110823D01*
X0193175Y0110823D02*
X0193175Y0106177D01*
X0193175Y0116177D02*
X0193175Y0120823D01*
X0196325Y0120823D02*
X0196325Y0116177D01*
X0196325Y0126177D02*
X0196325Y0130823D01*
X0193175Y0130823D02*
X0193175Y0126177D01*
X0193175Y0136177D02*
X0193175Y0140823D01*
X0196325Y0140823D02*
X0196325Y0136177D01*
X0196325Y0146177D02*
X0196325Y0150823D01*
X0193175Y0150823D02*
X0193175Y0146177D01*
X0193175Y0156177D02*
X0193175Y0160823D01*
X0196325Y0160823D02*
X0196325Y0156177D01*
X0196325Y0166177D02*
X0196325Y0170823D01*
X0193175Y0170823D02*
X0193175Y0166177D01*
X0224467Y0013304D02*
X0223700Y0012537D01*
X0223700Y0011769D01*
X0224467Y0011002D01*
X0226002Y0011002D01*
X0226769Y0010235D01*
X0226769Y0009467D01*
X0226002Y0008700D01*
X0224467Y0008700D01*
X0223700Y0009467D01*
X0224467Y0013304D02*
X0226002Y0013304D01*
X0226769Y0012537D01*
X0228304Y0013304D02*
X0228304Y0008700D01*
X0229839Y0010235D01*
X0231373Y0008700D01*
X0231373Y0013304D01*
D13*
X0226483Y0019900D02*
X0225866Y0019900D01*
X0225248Y0020517D01*
X0225248Y0021752D01*
X0225866Y0022369D01*
X0226483Y0022369D01*
X0227100Y0021752D01*
X0227100Y0020517D01*
X0226483Y0019900D01*
X0225248Y0020517D02*
X0224631Y0019900D01*
X0224014Y0019900D01*
X0223397Y0020517D01*
X0223397Y0021752D01*
X0224014Y0022369D01*
X0224631Y0022369D01*
X0225248Y0021752D01*
X0224631Y0029900D02*
X0225248Y0030517D01*
X0225248Y0032369D01*
X0224014Y0032369D02*
X0226483Y0032369D01*
X0227100Y0031752D01*
X0227100Y0030517D01*
X0226483Y0029900D01*
X0224631Y0029900D02*
X0224014Y0029900D01*
X0223397Y0030517D01*
X0223397Y0031752D01*
X0224014Y0032369D01*
X0224631Y0037400D02*
X0223397Y0038634D01*
X0227100Y0038634D01*
X0227100Y0037400D02*
X0227100Y0039869D01*
X0226483Y0041083D02*
X0224014Y0041083D01*
X0223397Y0041700D01*
X0223397Y0042935D01*
X0224014Y0043552D01*
X0226483Y0041083D01*
X0227100Y0041700D01*
X0227100Y0042935D01*
X0226483Y0043552D01*
X0224014Y0043552D01*
X0224631Y0048650D02*
X0223397Y0049884D01*
X0227100Y0049884D01*
X0227100Y0048650D02*
X0227100Y0051119D01*
X0227100Y0052333D02*
X0227100Y0054802D01*
X0227100Y0053568D02*
X0223397Y0053568D01*
X0224631Y0052333D01*
X0224631Y0057400D02*
X0223397Y0058634D01*
X0227100Y0058634D01*
X0227100Y0057400D02*
X0227100Y0059869D01*
X0227100Y0061083D02*
X0224631Y0063552D01*
X0224014Y0063552D01*
X0223397Y0062935D01*
X0223397Y0061700D01*
X0224014Y0061083D01*
X0227100Y0061083D02*
X0227100Y0063552D01*
X0227100Y0067400D02*
X0227100Y0069869D01*
X0227100Y0068634D02*
X0223397Y0068634D01*
X0224631Y0067400D01*
X0224014Y0071083D02*
X0223397Y0071700D01*
X0223397Y0072935D01*
X0224014Y0073552D01*
X0224631Y0073552D01*
X0225248Y0072935D01*
X0225866Y0073552D01*
X0226483Y0073552D01*
X0227100Y0072935D01*
X0227100Y0071700D01*
X0226483Y0071083D01*
X0225248Y0072318D02*
X0225248Y0072935D01*
X0224631Y0077400D02*
X0223397Y0078634D01*
X0227100Y0078634D01*
X0227100Y0077400D02*
X0227100Y0079869D01*
X0225248Y0081083D02*
X0225248Y0083552D01*
X0223397Y0082935D02*
X0227100Y0082935D01*
X0225248Y0081083D02*
X0223397Y0082935D01*
X0224631Y0087400D02*
X0223397Y0088634D01*
X0227100Y0088634D01*
X0227100Y0087400D02*
X0227100Y0089869D01*
X0226483Y0091083D02*
X0227100Y0091700D01*
X0227100Y0092935D01*
X0226483Y0093552D01*
X0225248Y0093552D01*
X0224631Y0092935D01*
X0224631Y0092318D01*
X0225248Y0091083D01*
X0223397Y0091083D01*
X0223397Y0093552D01*
X0224014Y0099900D02*
X0223397Y0100517D01*
X0223397Y0101752D01*
X0224014Y0102369D01*
X0226483Y0099900D01*
X0227100Y0100517D01*
X0227100Y0101752D01*
X0226483Y0102369D01*
X0224014Y0102369D01*
X0224014Y0099900D02*
X0226483Y0099900D01*
X0227100Y0109900D02*
X0227100Y0112369D01*
X0227100Y0111134D02*
X0223397Y0111134D01*
X0224631Y0109900D01*
X0224014Y0119900D02*
X0223397Y0120517D01*
X0223397Y0121752D01*
X0224014Y0122369D01*
X0224631Y0122369D01*
X0227100Y0119900D01*
X0227100Y0122369D01*
X0226483Y0129900D02*
X0227100Y0130517D01*
X0227100Y0131752D01*
X0226483Y0132369D01*
X0225866Y0132369D01*
X0225248Y0131752D01*
X0225248Y0131134D01*
X0225248Y0131752D02*
X0224631Y0132369D01*
X0224014Y0132369D01*
X0223397Y0131752D01*
X0223397Y0130517D01*
X0224014Y0129900D01*
X0225248Y0139900D02*
X0225248Y0142369D01*
X0223397Y0141752D02*
X0227100Y0141752D01*
X0225248Y0139900D02*
X0223397Y0141752D01*
X0223397Y0149900D02*
X0225248Y0149900D01*
X0224631Y0151134D01*
X0224631Y0151752D01*
X0225248Y0152369D01*
X0226483Y0152369D01*
X0227100Y0151752D01*
X0227100Y0150517D01*
X0226483Y0149900D01*
X0223397Y0149900D02*
X0223397Y0152369D01*
X0225248Y0159900D02*
X0225248Y0161752D01*
X0225866Y0162369D01*
X0226483Y0162369D01*
X0227100Y0161752D01*
X0227100Y0160517D01*
X0226483Y0159900D01*
X0225248Y0159900D01*
X0224014Y0161134D01*
X0223397Y0162369D01*
X0223397Y0169900D02*
X0223397Y0172369D01*
X0224014Y0172369D01*
X0226483Y0169900D01*
X0227100Y0169900D01*
X0053600Y0211529D02*
X0049897Y0211529D01*
X0049897Y0213380D01*
X0050514Y0213998D01*
X0051748Y0213998D01*
X0052366Y0213380D01*
X0052366Y0211529D01*
X0053600Y0215212D02*
X0053600Y0216446D01*
X0053600Y0215829D02*
X0049897Y0215829D01*
X0049897Y0215212D02*
X0049897Y0216446D01*
X0049897Y0221351D02*
X0049897Y0223202D01*
X0050514Y0223819D01*
X0051748Y0223819D01*
X0052366Y0223202D01*
X0052366Y0221351D01*
X0053600Y0221351D02*
X0049897Y0221351D01*
X0049897Y0225034D02*
X0053600Y0225034D01*
X0052366Y0226268D01*
X0053600Y0227502D01*
X0049897Y0227502D01*
X0049897Y0228717D02*
X0049897Y0230568D01*
X0050514Y0231186D01*
X0051748Y0231186D01*
X0052366Y0230568D01*
X0052366Y0228717D01*
X0053600Y0228717D02*
X0049897Y0228717D01*
X0052366Y0229951D02*
X0053600Y0231186D01*
D14*
X0064369Y0194945D02*
X0064870Y0194945D01*
X0065120Y0194695D01*
X0065120Y0193694D01*
X0064870Y0193444D01*
X0064369Y0193444D01*
X0064119Y0193694D01*
X0064119Y0194695D01*
X0064369Y0194945D01*
X0064619Y0193944D02*
X0065120Y0193444D01*
X0065592Y0193444D02*
X0066593Y0194445D01*
X0066593Y0194695D01*
X0066343Y0194945D01*
X0065842Y0194945D01*
X0065592Y0194695D01*
X0065592Y0193444D02*
X0066593Y0193444D01*
X0074119Y0187195D02*
X0074369Y0187445D01*
X0074870Y0187445D01*
X0075120Y0187195D01*
X0075120Y0186194D01*
X0074870Y0185944D01*
X0074369Y0185944D01*
X0074119Y0186194D01*
X0074119Y0187195D01*
X0074619Y0186444D02*
X0075120Y0185944D01*
X0075592Y0186694D02*
X0076593Y0186694D01*
X0076343Y0185944D02*
X0076343Y0187445D01*
X0075592Y0186694D01*
X0084119Y0179695D02*
X0084119Y0178694D01*
X0084369Y0178444D01*
X0084870Y0178444D01*
X0085120Y0178694D01*
X0085120Y0179695D01*
X0084870Y0179945D01*
X0084369Y0179945D01*
X0084119Y0179695D01*
X0084619Y0178944D02*
X0085120Y0178444D01*
X0085592Y0178694D02*
X0085842Y0178444D01*
X0086343Y0178444D01*
X0086593Y0178694D01*
X0086593Y0178944D01*
X0086343Y0179194D01*
X0085592Y0179194D01*
X0085592Y0178694D01*
X0085592Y0179194D02*
X0086093Y0179695D01*
X0086593Y0179945D01*
X0094119Y0172195D02*
X0094369Y0172445D01*
X0094870Y0172445D01*
X0095120Y0172195D01*
X0095120Y0171194D01*
X0094870Y0170944D01*
X0094369Y0170944D01*
X0094119Y0171194D01*
X0094119Y0172195D01*
X0094619Y0171444D02*
X0095120Y0170944D01*
X0095592Y0171194D02*
X0095842Y0170944D01*
X0096343Y0170944D01*
X0096593Y0171194D01*
X0096593Y0171444D01*
X0096343Y0171694D01*
X0095842Y0171694D01*
X0095592Y0171945D01*
X0095592Y0172195D01*
X0095842Y0172445D01*
X0096343Y0172445D01*
X0096593Y0172195D01*
X0096593Y0171945D01*
X0096343Y0171694D01*
X0095842Y0171694D02*
X0095592Y0171444D01*
X0095592Y0171194D01*
X0104119Y0164695D02*
X0104369Y0164945D01*
X0104870Y0164945D01*
X0105120Y0164695D01*
X0105120Y0163694D01*
X0104870Y0163444D01*
X0104369Y0163444D01*
X0104119Y0163694D01*
X0104119Y0164695D01*
X0104619Y0163944D02*
X0105120Y0163444D01*
X0105592Y0163444D02*
X0106593Y0163444D01*
X0106093Y0163444D02*
X0106093Y0164945D01*
X0105592Y0164445D01*
X0114119Y0157195D02*
X0114369Y0157445D01*
X0114870Y0157445D01*
X0115120Y0157195D01*
X0115120Y0156194D01*
X0114870Y0155944D01*
X0114369Y0155944D01*
X0114119Y0156194D01*
X0114119Y0157195D01*
X0114619Y0156444D02*
X0115120Y0155944D01*
X0115592Y0156194D02*
X0115842Y0155944D01*
X0116343Y0155944D01*
X0116593Y0156194D01*
X0116593Y0156444D01*
X0116343Y0156694D01*
X0116093Y0156694D01*
X0116343Y0156694D02*
X0116593Y0156945D01*
X0116593Y0157195D01*
X0116343Y0157445D01*
X0115842Y0157445D01*
X0115592Y0157195D01*
X0124119Y0149695D02*
X0124119Y0148694D01*
X0124369Y0148444D01*
X0124870Y0148444D01*
X0125120Y0148694D01*
X0125120Y0149695D01*
X0124870Y0149945D01*
X0124369Y0149945D01*
X0124119Y0149695D01*
X0124619Y0148944D02*
X0125120Y0148444D01*
X0125592Y0148694D02*
X0125842Y0148444D01*
X0126343Y0148444D01*
X0126593Y0148694D01*
X0126593Y0149194D01*
X0126343Y0149445D01*
X0126093Y0149445D01*
X0125592Y0149194D01*
X0125592Y0149945D01*
X0126593Y0149945D01*
X0134119Y0142195D02*
X0134369Y0142445D01*
X0134870Y0142445D01*
X0135120Y0142195D01*
X0135120Y0141194D01*
X0134870Y0140944D01*
X0134369Y0140944D01*
X0134119Y0141194D01*
X0134119Y0142195D01*
X0134619Y0141444D02*
X0135120Y0140944D01*
X0135592Y0140944D02*
X0135592Y0141194D01*
X0136593Y0142195D01*
X0136593Y0142445D01*
X0135592Y0142445D01*
X0125524Y0133301D02*
X0125524Y0133051D01*
X0124523Y0132050D01*
X0124523Y0131800D01*
X0124051Y0131800D02*
X0123550Y0132300D01*
X0123801Y0132300D02*
X0123050Y0132300D01*
X0123050Y0131800D02*
X0123050Y0133301D01*
X0123801Y0133301D01*
X0124051Y0133051D01*
X0124051Y0132551D01*
X0123801Y0132300D01*
X0124523Y0133301D02*
X0125524Y0133301D01*
X0115524Y0139550D02*
X0115274Y0139300D01*
X0114773Y0139300D01*
X0114523Y0139550D01*
X0114523Y0140051D02*
X0115024Y0140301D01*
X0115274Y0140301D01*
X0115524Y0140051D01*
X0115524Y0139550D01*
X0114523Y0140051D02*
X0114523Y0140801D01*
X0115524Y0140801D01*
X0114051Y0140551D02*
X0114051Y0140051D01*
X0113801Y0139800D01*
X0113050Y0139800D01*
X0113050Y0139300D02*
X0113050Y0140801D01*
X0113801Y0140801D01*
X0114051Y0140551D01*
X0113550Y0139800D02*
X0114051Y0139300D01*
X0105524Y0147050D02*
X0105274Y0146800D01*
X0104773Y0146800D01*
X0104523Y0147050D01*
X0104051Y0146800D02*
X0103550Y0147300D01*
X0103801Y0147300D02*
X0103050Y0147300D01*
X0103050Y0146800D02*
X0103050Y0148301D01*
X0103801Y0148301D01*
X0104051Y0148051D01*
X0104051Y0147551D01*
X0103801Y0147300D01*
X0104523Y0148051D02*
X0104773Y0148301D01*
X0105274Y0148301D01*
X0105524Y0148051D01*
X0105524Y0147801D01*
X0105274Y0147551D01*
X0105524Y0147300D01*
X0105524Y0147050D01*
X0105274Y0147551D02*
X0105024Y0147551D01*
X0095524Y0154300D02*
X0094523Y0154300D01*
X0094051Y0154300D02*
X0093550Y0154800D01*
X0093801Y0154800D02*
X0093050Y0154800D01*
X0093050Y0154300D02*
X0093050Y0155801D01*
X0093801Y0155801D01*
X0094051Y0155551D01*
X0094051Y0155051D01*
X0093801Y0154800D01*
X0094523Y0155301D02*
X0095024Y0155801D01*
X0095024Y0154300D01*
X0085524Y0162050D02*
X0085274Y0161800D01*
X0084773Y0161800D01*
X0084523Y0162050D01*
X0084523Y0162300D01*
X0084773Y0162551D01*
X0085274Y0162551D01*
X0085524Y0162300D01*
X0085524Y0162050D01*
X0085274Y0162551D02*
X0085524Y0162801D01*
X0085524Y0163051D01*
X0085274Y0163301D01*
X0084773Y0163301D01*
X0084523Y0163051D01*
X0084523Y0162801D01*
X0084773Y0162551D01*
X0084051Y0162551D02*
X0083801Y0162300D01*
X0083050Y0162300D01*
X0083050Y0161800D02*
X0083050Y0163301D01*
X0083801Y0163301D01*
X0084051Y0163051D01*
X0084051Y0162551D01*
X0083550Y0162300D02*
X0084051Y0161800D01*
X0075524Y0169550D02*
X0075524Y0169800D01*
X0075274Y0170051D01*
X0074523Y0170051D01*
X0074523Y0169550D01*
X0074773Y0169300D01*
X0075274Y0169300D01*
X0075524Y0169550D01*
X0075024Y0170551D02*
X0074523Y0170051D01*
X0074051Y0170051D02*
X0073801Y0169800D01*
X0073050Y0169800D01*
X0073050Y0169300D02*
X0073050Y0170801D01*
X0073801Y0170801D01*
X0074051Y0170551D01*
X0074051Y0170051D01*
X0073550Y0169800D02*
X0074051Y0169300D01*
X0075024Y0170551D02*
X0075524Y0170801D01*
X0065274Y0176800D02*
X0065274Y0178301D01*
X0064523Y0177551D01*
X0065524Y0177551D01*
X0064051Y0177551D02*
X0063801Y0177300D01*
X0063050Y0177300D01*
X0063050Y0176800D02*
X0063050Y0178301D01*
X0063801Y0178301D01*
X0064051Y0178051D01*
X0064051Y0177551D01*
X0063550Y0177300D02*
X0064051Y0176800D01*
X0055524Y0184300D02*
X0054523Y0184300D01*
X0055524Y0185301D01*
X0055524Y0185551D01*
X0055274Y0185801D01*
X0054773Y0185801D01*
X0054523Y0185551D01*
X0054051Y0185551D02*
X0054051Y0185051D01*
X0053801Y0184800D01*
X0053050Y0184800D01*
X0053050Y0184300D02*
X0053050Y0185801D01*
X0053801Y0185801D01*
X0054051Y0185551D01*
X0053550Y0184800D02*
X0054051Y0184300D01*
X0090799Y0219354D02*
X0091049Y0219103D01*
X0092050Y0219103D01*
X0092300Y0219354D01*
X0092300Y0219854D01*
X0092050Y0220104D01*
X0092050Y0220577D02*
X0092300Y0220827D01*
X0092300Y0221327D01*
X0092050Y0221578D01*
X0091800Y0221578D01*
X0091549Y0221327D01*
X0091549Y0221077D01*
X0091549Y0221327D02*
X0091299Y0221578D01*
X0091049Y0221578D01*
X0090799Y0221327D01*
X0090799Y0220827D01*
X0091049Y0220577D01*
X0091049Y0220104D02*
X0090799Y0219854D01*
X0090799Y0219354D01*
X0141049Y0222131D02*
X0141049Y0222631D01*
X0141049Y0222381D02*
X0142300Y0222381D01*
X0142550Y0222131D01*
X0142550Y0221880D01*
X0142300Y0221630D01*
X0142550Y0223103D02*
X0141049Y0223103D01*
X0141049Y0223854D01*
X0141299Y0224104D01*
X0141799Y0224104D01*
X0142050Y0223854D01*
X0142050Y0223103D01*
X0141799Y0224577D02*
X0142300Y0224577D01*
X0142550Y0224827D01*
X0142550Y0225327D01*
X0142300Y0225578D01*
X0142050Y0225578D01*
X0141799Y0225327D01*
X0141799Y0224577D01*
X0141299Y0225077D01*
X0141049Y0225578D01*
X0190999Y0167624D02*
X0192500Y0167624D01*
X0192500Y0168124D02*
X0192500Y0167123D01*
X0192250Y0166651D02*
X0191249Y0166651D01*
X0190999Y0166401D01*
X0190999Y0165650D01*
X0192500Y0165650D01*
X0192500Y0166401D01*
X0192250Y0166651D01*
X0191499Y0167123D02*
X0190999Y0167624D01*
X0191249Y0158124D02*
X0190999Y0157874D01*
X0190999Y0157373D01*
X0191249Y0157123D01*
X0191249Y0156651D02*
X0190999Y0156401D01*
X0190999Y0155650D01*
X0192500Y0155650D01*
X0192500Y0156401D01*
X0192250Y0156651D01*
X0191249Y0156651D01*
X0192500Y0157123D02*
X0191499Y0158124D01*
X0191249Y0158124D01*
X0192500Y0158124D02*
X0192500Y0157123D01*
X0192250Y0148124D02*
X0192500Y0147874D01*
X0192500Y0147373D01*
X0192250Y0147123D01*
X0192250Y0146651D02*
X0191249Y0146651D01*
X0190999Y0146401D01*
X0190999Y0145650D01*
X0192500Y0145650D01*
X0192500Y0146401D01*
X0192250Y0146651D01*
X0191749Y0147624D02*
X0191749Y0147874D01*
X0192000Y0148124D01*
X0192250Y0148124D01*
X0191749Y0147874D02*
X0191499Y0148124D01*
X0191249Y0148124D01*
X0190999Y0147874D01*
X0190999Y0147373D01*
X0191249Y0147123D01*
X0191749Y0138124D02*
X0191749Y0137123D01*
X0190999Y0137874D01*
X0192500Y0137874D01*
X0192250Y0136651D02*
X0191249Y0136651D01*
X0190999Y0136401D01*
X0190999Y0135650D01*
X0192500Y0135650D01*
X0192500Y0136401D01*
X0192250Y0136651D01*
X0192250Y0128124D02*
X0191749Y0128124D01*
X0191499Y0127874D01*
X0191499Y0127624D01*
X0191749Y0127123D01*
X0190999Y0127123D01*
X0190999Y0128124D01*
X0192250Y0128124D02*
X0192500Y0127874D01*
X0192500Y0127373D01*
X0192250Y0127123D01*
X0192250Y0126651D02*
X0191249Y0126651D01*
X0190999Y0126401D01*
X0190999Y0125650D01*
X0192500Y0125650D01*
X0192500Y0126401D01*
X0192250Y0126651D01*
X0192250Y0118124D02*
X0192000Y0118124D01*
X0191749Y0117874D01*
X0191749Y0117123D01*
X0192250Y0117123D01*
X0192500Y0117373D01*
X0192500Y0117874D01*
X0192250Y0118124D01*
X0191249Y0117624D02*
X0191749Y0117123D01*
X0191249Y0116651D02*
X0190999Y0116401D01*
X0190999Y0115650D01*
X0192500Y0115650D01*
X0192500Y0116401D01*
X0192250Y0116651D01*
X0191249Y0116651D01*
X0191249Y0117624D02*
X0190999Y0118124D01*
X0190999Y0108124D02*
X0191249Y0108124D01*
X0192250Y0107123D01*
X0192500Y0107123D01*
X0192250Y0106651D02*
X0191249Y0106651D01*
X0190999Y0106401D01*
X0190999Y0105650D01*
X0192500Y0105650D01*
X0192500Y0106401D01*
X0192250Y0106651D01*
X0190999Y0107123D02*
X0190999Y0108124D01*
X0191249Y0098124D02*
X0191499Y0098124D01*
X0191749Y0097874D01*
X0191749Y0097373D01*
X0191499Y0097123D01*
X0191249Y0097123D01*
X0190999Y0097373D01*
X0190999Y0097874D01*
X0191249Y0098124D01*
X0191749Y0097874D02*
X0192000Y0098124D01*
X0192250Y0098124D01*
X0192500Y0097874D01*
X0192500Y0097373D01*
X0192250Y0097123D01*
X0192000Y0097123D01*
X0191749Y0097373D01*
X0191249Y0096651D02*
X0190999Y0096401D01*
X0190999Y0095650D01*
X0192500Y0095650D01*
X0192500Y0096401D01*
X0192250Y0096651D01*
X0191249Y0096651D01*
X0191249Y0088124D02*
X0190999Y0087874D01*
X0190999Y0087373D01*
X0191249Y0087123D01*
X0191499Y0087123D01*
X0191749Y0087373D01*
X0191749Y0088124D01*
X0191249Y0088124D02*
X0192250Y0088124D01*
X0192500Y0087874D01*
X0192500Y0087373D01*
X0192250Y0087123D01*
X0192250Y0086651D02*
X0191249Y0086651D01*
X0190999Y0086401D01*
X0190999Y0085650D01*
X0192500Y0085650D01*
X0192500Y0086401D01*
X0192250Y0086651D01*
X0192250Y0079597D02*
X0191249Y0079597D01*
X0192250Y0078597D01*
X0192500Y0078847D01*
X0192500Y0079347D01*
X0192250Y0079597D01*
X0192250Y0078597D02*
X0191249Y0078597D01*
X0190999Y0078847D01*
X0190999Y0079347D01*
X0191249Y0079597D01*
X0192500Y0078124D02*
X0192500Y0077123D01*
X0192500Y0077624D02*
X0190999Y0077624D01*
X0191499Y0077123D01*
X0191249Y0076651D02*
X0190999Y0076401D01*
X0190999Y0075650D01*
X0192500Y0075650D01*
X0192500Y0076401D01*
X0192250Y0076651D01*
X0191249Y0076651D01*
X0192500Y0069597D02*
X0192500Y0068597D01*
X0192500Y0068124D02*
X0192500Y0067123D01*
X0192500Y0067624D02*
X0190999Y0067624D01*
X0191499Y0067123D01*
X0191249Y0066651D02*
X0190999Y0066401D01*
X0190999Y0065650D01*
X0192500Y0065650D01*
X0192500Y0066401D01*
X0192250Y0066651D01*
X0191249Y0066651D01*
X0191499Y0068597D02*
X0190999Y0069097D01*
X0192500Y0069097D01*
X0192500Y0059597D02*
X0192500Y0058597D01*
X0191499Y0059597D01*
X0191249Y0059597D01*
X0190999Y0059347D01*
X0190999Y0058847D01*
X0191249Y0058597D01*
X0190999Y0057624D02*
X0192500Y0057624D01*
X0192500Y0058124D02*
X0192500Y0057123D01*
X0192250Y0056651D02*
X0191249Y0056651D01*
X0190999Y0056401D01*
X0190999Y0055650D01*
X0192500Y0055650D01*
X0192500Y0056401D01*
X0192250Y0056651D01*
X0191499Y0057123D02*
X0190999Y0057624D01*
X0191249Y0049597D02*
X0191499Y0049597D01*
X0191749Y0049347D01*
X0192000Y0049597D01*
X0192250Y0049597D01*
X0192500Y0049347D01*
X0192500Y0048847D01*
X0192250Y0048597D01*
X0192500Y0048124D02*
X0192500Y0047123D01*
X0192500Y0047624D02*
X0190999Y0047624D01*
X0191499Y0047123D01*
X0191249Y0046651D02*
X0190999Y0046401D01*
X0190999Y0045650D01*
X0192500Y0045650D01*
X0192500Y0046401D01*
X0192250Y0046651D01*
X0191249Y0046651D01*
X0191249Y0048597D02*
X0190999Y0048847D01*
X0190999Y0049347D01*
X0191249Y0049597D01*
X0191749Y0049347D02*
X0191749Y0049097D01*
X0191749Y0039597D02*
X0191749Y0038597D01*
X0190999Y0039347D01*
X0192500Y0039347D01*
X0192500Y0038124D02*
X0192500Y0037123D01*
X0192500Y0037624D02*
X0190999Y0037624D01*
X0191499Y0037123D01*
X0191249Y0036651D02*
X0190999Y0036401D01*
X0190999Y0035650D01*
X0192500Y0035650D01*
X0192500Y0036401D01*
X0192250Y0036651D01*
X0191249Y0036651D01*
X0190999Y0029597D02*
X0190999Y0028597D01*
X0191749Y0028597D01*
X0191499Y0029097D01*
X0191499Y0029347D01*
X0191749Y0029597D01*
X0192250Y0029597D01*
X0192500Y0029347D01*
X0192500Y0028847D01*
X0192250Y0028597D01*
X0192500Y0028124D02*
X0192500Y0027123D01*
X0192500Y0027624D02*
X0190999Y0027624D01*
X0191499Y0027123D01*
X0191249Y0026651D02*
X0190999Y0026401D01*
X0190999Y0025650D01*
X0192500Y0025650D01*
X0192500Y0026401D01*
X0192250Y0026651D01*
X0191249Y0026651D01*
X0190999Y0019597D02*
X0191249Y0019097D01*
X0191749Y0018597D01*
X0191749Y0019347D01*
X0192000Y0019597D01*
X0192250Y0019597D01*
X0192500Y0019347D01*
X0192500Y0018847D01*
X0192250Y0018597D01*
X0191749Y0018597D01*
X0192500Y0018124D02*
X0192500Y0017123D01*
X0192500Y0017624D02*
X0190999Y0017624D01*
X0191499Y0017123D01*
X0191249Y0016651D02*
X0190999Y0016401D01*
X0190999Y0015650D01*
X0192500Y0015650D01*
X0192500Y0016401D01*
X0192250Y0016651D01*
X0191249Y0016651D01*
X0147193Y0071061D02*
X0146193Y0071061D01*
X0145942Y0071312D01*
X0145942Y0071812D01*
X0146193Y0072062D01*
X0147193Y0072062D01*
X0147444Y0071812D01*
X0147444Y0071312D01*
X0147193Y0071061D01*
X0146943Y0071562D02*
X0147444Y0072062D01*
X0147444Y0072535D02*
X0147444Y0073535D01*
X0147444Y0073035D02*
X0145942Y0073035D01*
X0146443Y0072535D01*
X0146193Y0074008D02*
X0145942Y0074258D01*
X0145942Y0074758D01*
X0146193Y0075009D01*
X0147193Y0074008D01*
X0147444Y0074258D01*
X0147444Y0074758D01*
X0147193Y0075009D01*
X0146193Y0075009D01*
X0146193Y0074008D02*
X0147193Y0074008D01*
X0137444Y0067509D02*
X0137444Y0066508D01*
X0136443Y0067509D01*
X0136193Y0067509D01*
X0135942Y0067258D01*
X0135942Y0066758D01*
X0136193Y0066508D01*
X0135942Y0065535D02*
X0137444Y0065535D01*
X0137444Y0065035D02*
X0137444Y0066035D01*
X0136443Y0065035D02*
X0135942Y0065535D01*
X0136193Y0064562D02*
X0137193Y0064562D01*
X0137444Y0064312D01*
X0137444Y0063812D01*
X0137193Y0063561D01*
X0136193Y0063561D01*
X0135942Y0063812D01*
X0135942Y0064312D01*
X0136193Y0064562D01*
X0136943Y0064062D02*
X0137444Y0064562D01*
X0127444Y0059758D02*
X0125942Y0059758D01*
X0126693Y0059008D01*
X0126693Y0060009D01*
X0127444Y0058535D02*
X0127444Y0057535D01*
X0127444Y0057062D02*
X0126943Y0056562D01*
X0127193Y0057062D02*
X0127444Y0056812D01*
X0127444Y0056312D01*
X0127193Y0056061D01*
X0126193Y0056061D01*
X0125942Y0056312D01*
X0125942Y0056812D01*
X0126193Y0057062D01*
X0127193Y0057062D01*
X0126443Y0057535D02*
X0125942Y0058035D01*
X0127444Y0058035D01*
X0117444Y0052258D02*
X0117193Y0052509D01*
X0116943Y0052509D01*
X0116693Y0052258D01*
X0116693Y0051508D01*
X0117193Y0051508D01*
X0117444Y0051758D01*
X0117444Y0052258D01*
X0116693Y0051508D02*
X0116193Y0052008D01*
X0115942Y0052509D01*
X0115942Y0050535D02*
X0117444Y0050535D01*
X0117444Y0050035D02*
X0117444Y0051035D01*
X0116443Y0050035D02*
X0115942Y0050535D01*
X0116193Y0049562D02*
X0115942Y0049312D01*
X0115942Y0048812D01*
X0116193Y0048561D01*
X0117193Y0048561D01*
X0117444Y0048812D01*
X0117444Y0049312D01*
X0117193Y0049562D01*
X0116193Y0049562D01*
X0116943Y0049062D02*
X0117444Y0049562D01*
X0107444Y0044758D02*
X0107193Y0045009D01*
X0106193Y0045009D01*
X0105942Y0044758D01*
X0105942Y0044258D01*
X0106193Y0044008D01*
X0106443Y0044008D01*
X0106693Y0044258D01*
X0106693Y0045009D01*
X0107444Y0044758D02*
X0107444Y0044258D01*
X0107193Y0044008D01*
X0107193Y0043535D02*
X0107444Y0043285D01*
X0107444Y0042785D01*
X0107193Y0042535D01*
X0106193Y0042535D01*
X0105942Y0042785D01*
X0105942Y0043285D01*
X0106193Y0043535D01*
X0107193Y0043535D01*
X0107444Y0043535D02*
X0106943Y0043035D01*
X0097444Y0037509D02*
X0097444Y0036508D01*
X0097444Y0036035D02*
X0097444Y0035035D01*
X0097444Y0034562D02*
X0096943Y0034062D01*
X0097193Y0034562D02*
X0096193Y0034562D01*
X0095942Y0034312D01*
X0095942Y0033812D01*
X0096193Y0033561D01*
X0097193Y0033561D01*
X0097444Y0033812D01*
X0097444Y0034312D01*
X0097193Y0034562D01*
X0096443Y0035035D02*
X0095942Y0035535D01*
X0097444Y0035535D01*
X0096443Y0036508D02*
X0095942Y0037008D01*
X0097444Y0037008D01*
X0087444Y0029758D02*
X0087444Y0029258D01*
X0087193Y0029008D01*
X0087444Y0028535D02*
X0087444Y0027535D01*
X0087444Y0027062D02*
X0086943Y0026562D01*
X0087193Y0027062D02*
X0087444Y0026812D01*
X0087444Y0026312D01*
X0087193Y0026061D01*
X0086193Y0026061D01*
X0085942Y0026312D01*
X0085942Y0026812D01*
X0086193Y0027062D01*
X0087193Y0027062D01*
X0086443Y0027535D02*
X0085942Y0028035D01*
X0087444Y0028035D01*
X0086193Y0029008D02*
X0085942Y0029258D01*
X0085942Y0029758D01*
X0086193Y0030009D01*
X0086443Y0030009D01*
X0086693Y0029758D01*
X0086943Y0030009D01*
X0087193Y0030009D01*
X0087444Y0029758D01*
X0086693Y0029758D02*
X0086693Y0029508D01*
X0077444Y0022258D02*
X0077444Y0021758D01*
X0077193Y0021508D01*
X0076693Y0021508D02*
X0076443Y0022008D01*
X0076443Y0022258D01*
X0076693Y0022509D01*
X0077193Y0022509D01*
X0077444Y0022258D01*
X0076693Y0021508D02*
X0075942Y0021508D01*
X0075942Y0022509D01*
X0075942Y0020535D02*
X0077444Y0020535D01*
X0077444Y0020035D02*
X0077444Y0021035D01*
X0076443Y0020035D02*
X0075942Y0020535D01*
X0076193Y0019562D02*
X0077193Y0019562D01*
X0077444Y0019312D01*
X0077444Y0018812D01*
X0077193Y0018561D01*
X0076193Y0018561D01*
X0075942Y0018812D01*
X0075942Y0019312D01*
X0076193Y0019562D01*
X0076943Y0019062D02*
X0077444Y0019562D01*
X0066747Y0031800D02*
X0066247Y0031800D01*
X0065997Y0032050D01*
X0065524Y0031800D02*
X0064523Y0031800D01*
X0064051Y0031800D02*
X0063550Y0032300D01*
X0063801Y0032300D02*
X0063050Y0032300D01*
X0063050Y0031800D02*
X0063050Y0033301D01*
X0063801Y0033301D01*
X0064051Y0033051D01*
X0064051Y0032551D01*
X0063801Y0032300D01*
X0064523Y0032801D02*
X0065024Y0033301D01*
X0065024Y0031800D01*
X0065997Y0033051D02*
X0066247Y0033301D01*
X0066747Y0033301D01*
X0066997Y0033051D01*
X0066997Y0032801D01*
X0066747Y0032551D01*
X0066997Y0032300D01*
X0066997Y0032050D01*
X0066747Y0031800D01*
X0066747Y0032551D02*
X0066497Y0032551D01*
X0073050Y0039300D02*
X0073050Y0040801D01*
X0073801Y0040801D01*
X0074051Y0040551D01*
X0074051Y0040051D01*
X0073801Y0039800D01*
X0073050Y0039800D01*
X0073550Y0039800D02*
X0074051Y0039300D01*
X0074523Y0039300D02*
X0075524Y0039300D01*
X0075997Y0039300D02*
X0076997Y0039300D01*
X0076497Y0039300D02*
X0076497Y0040801D01*
X0075997Y0040301D01*
X0075024Y0040801D02*
X0075024Y0039300D01*
X0074523Y0040301D02*
X0075024Y0040801D01*
X0083050Y0046800D02*
X0083050Y0048301D01*
X0083801Y0048301D01*
X0084051Y0048051D01*
X0084051Y0047551D01*
X0083801Y0047300D01*
X0083050Y0047300D01*
X0083550Y0047300D02*
X0084051Y0046800D01*
X0084523Y0047050D02*
X0084773Y0046800D01*
X0085274Y0046800D01*
X0085524Y0047050D01*
X0085524Y0048051D01*
X0085274Y0048301D01*
X0084773Y0048301D01*
X0084523Y0048051D01*
X0084523Y0047801D01*
X0084773Y0047551D01*
X0085524Y0047551D01*
X0093050Y0054300D02*
X0093050Y0055801D01*
X0093801Y0055801D01*
X0094051Y0055551D01*
X0094051Y0055051D01*
X0093801Y0054800D01*
X0093050Y0054800D01*
X0093550Y0054800D02*
X0094051Y0054300D01*
X0094523Y0054300D02*
X0095524Y0054300D01*
X0095024Y0054300D02*
X0095024Y0055801D01*
X0094523Y0055301D01*
X0095997Y0055051D02*
X0096747Y0055051D01*
X0096997Y0054800D01*
X0096997Y0054550D01*
X0096747Y0054300D01*
X0096247Y0054300D01*
X0095997Y0054550D01*
X0095997Y0055051D01*
X0096497Y0055551D01*
X0096997Y0055801D01*
X0103050Y0061800D02*
X0103050Y0063301D01*
X0103801Y0063301D01*
X0104051Y0063051D01*
X0104051Y0062551D01*
X0103801Y0062300D01*
X0103050Y0062300D01*
X0103550Y0062300D02*
X0104051Y0061800D01*
X0104523Y0061800D02*
X0105524Y0061800D01*
X0105024Y0061800D02*
X0105024Y0063301D01*
X0104523Y0062801D01*
X0105997Y0062551D02*
X0106997Y0062551D01*
X0106747Y0063301D02*
X0105997Y0062551D01*
X0106747Y0063301D02*
X0106747Y0061800D01*
X0113050Y0069300D02*
X0113050Y0070801D01*
X0113801Y0070801D01*
X0114051Y0070551D01*
X0114051Y0070051D01*
X0113801Y0069800D01*
X0113050Y0069800D01*
X0113550Y0069800D02*
X0114051Y0069300D01*
X0114523Y0069300D02*
X0115524Y0069300D01*
X0115997Y0069300D02*
X0116997Y0070301D01*
X0116997Y0070551D01*
X0116747Y0070801D01*
X0116247Y0070801D01*
X0115997Y0070551D01*
X0115024Y0070801D02*
X0115024Y0069300D01*
X0115997Y0069300D02*
X0116997Y0069300D01*
X0115024Y0070801D02*
X0114523Y0070301D01*
X0123050Y0076800D02*
X0123050Y0078301D01*
X0123801Y0078301D01*
X0124051Y0078051D01*
X0124051Y0077551D01*
X0123801Y0077300D01*
X0123050Y0077300D01*
X0123550Y0077300D02*
X0124051Y0076800D01*
X0124523Y0076800D02*
X0125524Y0076800D01*
X0125024Y0076800D02*
X0125024Y0078301D01*
X0124523Y0077801D01*
X0125997Y0078051D02*
X0126247Y0078301D01*
X0126747Y0078301D01*
X0126997Y0078051D01*
X0125997Y0077050D01*
X0126247Y0076800D01*
X0126747Y0076800D01*
X0126997Y0077050D01*
X0126997Y0078051D01*
X0125997Y0078051D02*
X0125997Y0077050D01*
X0113050Y0094853D02*
X0113300Y0095104D01*
X0113300Y0095604D01*
X0113050Y0095854D01*
X0113300Y0096327D02*
X0113300Y0097328D01*
X0113300Y0096827D02*
X0111799Y0096827D01*
X0112299Y0096327D01*
X0112049Y0095854D02*
X0111799Y0095604D01*
X0111799Y0095104D01*
X0112049Y0094853D01*
X0113050Y0094853D01*
X0104950Y0104300D02*
X0103949Y0104300D01*
X0103699Y0104550D01*
X0103699Y0105051D01*
X0103949Y0105301D01*
X0103949Y0105773D02*
X0103699Y0106023D01*
X0103699Y0106524D01*
X0103949Y0106774D01*
X0104199Y0106774D01*
X0105200Y0105773D01*
X0105200Y0106774D01*
X0104950Y0105301D02*
X0105200Y0105051D01*
X0105200Y0104550D01*
X0104950Y0104300D01*
X0101627Y0106554D02*
X0101627Y0107054D01*
X0101377Y0107304D01*
X0100126Y0107304D01*
X0100626Y0107777D02*
X0100126Y0108277D01*
X0101627Y0108277D01*
X0101627Y0107777D02*
X0101627Y0108778D01*
X0101627Y0106554D02*
X0101377Y0106303D01*
X0100126Y0106303D01*
X0056997Y0025801D02*
X0055997Y0025801D01*
X0055997Y0025051D01*
X0056497Y0025301D01*
X0056747Y0025301D01*
X0056997Y0025051D01*
X0056997Y0024550D01*
X0056747Y0024300D01*
X0056247Y0024300D01*
X0055997Y0024550D01*
X0055524Y0024300D02*
X0054523Y0024300D01*
X0054051Y0024300D02*
X0053550Y0024800D01*
X0053801Y0024800D02*
X0053050Y0024800D01*
X0053050Y0024300D02*
X0053050Y0025801D01*
X0053801Y0025801D01*
X0054051Y0025551D01*
X0054051Y0025051D01*
X0053801Y0024800D01*
X0054523Y0025301D02*
X0055024Y0025801D01*
X0055024Y0024300D01*
X0046449Y0013247D02*
X0047450Y0012247D01*
X0047700Y0012247D01*
X0047700Y0011774D02*
X0047700Y0010773D01*
X0047700Y0010301D02*
X0047200Y0009800D01*
X0047200Y0010051D02*
X0047200Y0009300D01*
X0047700Y0009300D02*
X0046199Y0009300D01*
X0046199Y0010051D01*
X0046449Y0010301D01*
X0046949Y0010301D01*
X0047200Y0010051D01*
X0046699Y0010773D02*
X0046199Y0011274D01*
X0047700Y0011274D01*
X0046199Y0012247D02*
X0046199Y0013247D01*
X0046449Y0013247D01*
X0211049Y0222131D02*
X0211049Y0222631D01*
X0211049Y0222381D02*
X0212300Y0222381D01*
X0212550Y0222131D01*
X0212550Y0221880D01*
X0212300Y0221630D01*
X0212550Y0223103D02*
X0211049Y0223103D01*
X0211049Y0223854D01*
X0211299Y0224104D01*
X0211799Y0224104D01*
X0212050Y0223854D01*
X0212050Y0223103D01*
X0212300Y0224577D02*
X0212550Y0224577D01*
X0212300Y0224577D02*
X0211299Y0225578D01*
X0211049Y0225578D01*
X0211049Y0224577D01*
D15*
X0194775Y0168200D03*
X0194775Y0158200D03*
X0194775Y0148200D03*
X0194775Y0138200D03*
X0194775Y0128200D03*
X0194775Y0118200D03*
X0194775Y0108200D03*
X0194775Y0098200D03*
X0194775Y0088200D03*
X0194775Y0078200D03*
X0194775Y0068200D03*
X0194775Y0058200D03*
X0194775Y0048200D03*
X0194775Y0038200D03*
X0194775Y0028200D03*
X0194775Y0018200D03*
D16*
X0201000Y0018500D02*
X0201000Y0023500D01*
X0203500Y0026000D01*
X0201000Y0028500D01*
X0201000Y0033500D01*
X0203500Y0036000D01*
X0201000Y0038500D01*
X0201000Y0043500D01*
X0203500Y0046000D01*
X0201000Y0048500D01*
X0201000Y0053500D01*
X0203500Y0056000D01*
X0201000Y0058500D01*
X0201000Y0063500D01*
X0203500Y0066000D01*
X0201000Y0068500D01*
X0201000Y0073500D01*
X0203500Y0076000D01*
X0201000Y0078500D01*
X0201000Y0083500D01*
X0203500Y0086000D01*
X0201000Y0088500D01*
X0201000Y0093500D01*
X0203500Y0096000D01*
X0201000Y0098500D01*
X0201000Y0103500D01*
X0203500Y0106000D01*
X0201000Y0108500D01*
X0201000Y0113500D01*
X0203500Y0116000D01*
X0201000Y0118500D01*
X0201000Y0123500D01*
X0203500Y0126000D01*
X0201000Y0128500D01*
X0201000Y0133500D01*
X0203500Y0136000D01*
X0201000Y0138500D01*
X0201000Y0143500D01*
X0203500Y0146000D01*
X0201000Y0148500D01*
X0201000Y0153500D01*
X0203500Y0156000D01*
X0201000Y0158500D01*
X0201000Y0163500D01*
X0203500Y0166000D01*
X0201000Y0168500D01*
X0201000Y0173500D01*
X0203500Y0176000D01*
X0208500Y0176000D01*
X0211000Y0173500D01*
X0211000Y0168500D01*
X0213500Y0166000D01*
X0211000Y0163500D01*
X0211000Y0158500D01*
X0213500Y0156000D01*
X0211000Y0153500D01*
X0211000Y0148500D01*
X0213500Y0146000D01*
X0211000Y0143500D01*
X0211000Y0138500D01*
X0213500Y0136000D01*
X0211000Y0133500D01*
X0211000Y0128500D01*
X0213500Y0126000D01*
X0211000Y0123500D01*
X0211000Y0118500D01*
X0213500Y0116000D01*
X0211000Y0113500D01*
X0211000Y0108500D01*
X0213500Y0106000D01*
X0211000Y0103500D01*
X0211000Y0098500D01*
X0213500Y0096000D01*
X0211000Y0093500D01*
X0211000Y0088500D01*
X0213500Y0086000D01*
X0211000Y0083500D01*
X0211000Y0078500D01*
X0213500Y0076000D01*
X0211000Y0073500D01*
X0211000Y0068500D01*
X0213500Y0066000D01*
X0211000Y0063500D01*
X0211000Y0058500D01*
X0213500Y0056000D01*
X0211000Y0053500D01*
X0211000Y0048500D01*
X0213500Y0046000D01*
X0211000Y0043500D01*
X0211000Y0038500D01*
X0213500Y0036000D01*
X0211000Y0033500D01*
X0211000Y0028500D01*
X0213500Y0026000D01*
X0211000Y0023500D01*
X0211000Y0018500D01*
X0213500Y0016000D01*
X0211000Y0013500D01*
X0211000Y0008500D01*
X0213500Y0006000D01*
X0218500Y0006000D01*
X0221000Y0008500D01*
X0221000Y0013500D01*
X0218500Y0016000D01*
X0221000Y0018500D01*
X0221000Y0023500D01*
X0218500Y0026000D01*
X0221000Y0028500D01*
X0221000Y0033500D01*
X0218500Y0036000D01*
X0221000Y0038500D01*
X0221000Y0043500D01*
X0218500Y0046000D01*
X0221000Y0048500D01*
X0221000Y0053500D01*
X0218500Y0056000D01*
X0221000Y0058500D01*
X0221000Y0063500D01*
X0218500Y0066000D01*
X0221000Y0068500D01*
X0221000Y0073500D01*
X0218500Y0076000D01*
X0221000Y0078500D01*
X0221000Y0083500D01*
X0218500Y0086000D01*
X0221000Y0088500D01*
X0221000Y0093500D01*
X0218500Y0096000D01*
X0221000Y0098500D01*
X0221000Y0103500D01*
X0218500Y0106000D01*
X0221000Y0108500D01*
X0221000Y0113500D01*
X0218500Y0116000D01*
X0221000Y0118500D01*
X0221000Y0123500D01*
X0218500Y0126000D01*
X0221000Y0128500D01*
X0221000Y0133500D01*
X0218500Y0136000D01*
X0221000Y0138500D01*
X0221000Y0143500D01*
X0218500Y0146000D01*
X0221000Y0148500D01*
X0221000Y0153500D01*
X0218500Y0156000D01*
X0221000Y0158500D01*
X0221000Y0163500D01*
X0218500Y0166000D01*
X0221000Y0168500D01*
X0221000Y0173500D01*
X0218500Y0176000D01*
X0213500Y0176000D01*
X0211000Y0173500D01*
X0211000Y0168500D01*
X0208500Y0166000D01*
X0211000Y0163500D01*
X0211000Y0158500D01*
X0208500Y0156000D01*
X0211000Y0153500D01*
X0211000Y0148500D01*
X0208500Y0146000D01*
X0211000Y0143500D01*
X0211000Y0138500D01*
X0208500Y0136000D01*
X0211000Y0133500D01*
X0211000Y0128500D01*
X0208500Y0126000D01*
X0211000Y0123500D01*
X0211000Y0118500D01*
X0208500Y0116000D01*
X0211000Y0113500D01*
X0211000Y0108500D01*
X0208500Y0106000D01*
X0211000Y0103500D01*
X0211000Y0098500D01*
X0208500Y0096000D01*
X0211000Y0093500D01*
X0211000Y0088500D01*
X0208500Y0086000D01*
X0211000Y0083500D01*
X0211000Y0078500D01*
X0208500Y0076000D01*
X0211000Y0073500D01*
X0211000Y0068500D01*
X0208500Y0066000D01*
X0211000Y0063500D01*
X0211000Y0058500D01*
X0208500Y0056000D01*
X0211000Y0053500D01*
X0211000Y0048500D01*
X0208500Y0046000D01*
X0211000Y0043500D01*
X0211000Y0038500D01*
X0208500Y0036000D01*
X0211000Y0033500D01*
X0211000Y0028500D01*
X0208500Y0026000D01*
X0211000Y0023500D01*
X0211000Y0018500D01*
X0208500Y0016000D01*
X0211000Y0013500D01*
X0211000Y0008500D01*
X0208500Y0006000D01*
X0203500Y0006000D01*
X0201000Y0008500D01*
X0201000Y0013500D01*
X0203500Y0016000D01*
X0201000Y0018500D01*
X0141256Y0066669D02*
X0138106Y0066669D01*
X0141256Y0066669D02*
X0141256Y0067850D01*
X0141256Y0074150D02*
X0141256Y0075331D01*
X0138106Y0075331D01*
X0131256Y0067831D02*
X0128106Y0067831D01*
X0131256Y0067831D02*
X0131256Y0066650D01*
X0131256Y0060350D02*
X0131256Y0059169D01*
X0128106Y0059169D01*
X0121256Y0059150D02*
X0121256Y0060331D01*
X0118106Y0060331D01*
X0121256Y0052850D02*
X0121256Y0051669D01*
X0118106Y0051669D01*
X0111256Y0051650D02*
X0111256Y0052831D01*
X0108106Y0052831D01*
X0111256Y0045350D02*
X0111256Y0044169D01*
X0108106Y0044169D01*
X0101256Y0044150D02*
X0101256Y0045331D01*
X0098106Y0045331D01*
X0101256Y0037850D02*
X0101256Y0036669D01*
X0098106Y0036669D01*
X0091256Y0036650D02*
X0091256Y0037831D01*
X0088106Y0037831D01*
X0091256Y0030350D02*
X0091256Y0029169D01*
X0088106Y0029169D01*
X0081256Y0029150D02*
X0081256Y0030331D01*
X0078106Y0030331D01*
X0081256Y0022850D02*
X0081256Y0021669D01*
X0078106Y0021669D01*
X0071256Y0021650D02*
X0071256Y0022831D01*
X0068106Y0022831D01*
X0071256Y0015350D02*
X0071256Y0014169D01*
X0068106Y0014169D01*
X0043717Y0006236D02*
X0008283Y0006236D01*
X0008283Y0235764D01*
X0043323Y0235764D01*
X0043717Y0235764D02*
X0043717Y0006236D01*
X0014189Y0112339D02*
X0008283Y0112339D01*
X0014189Y0112339D02*
X0014189Y0129661D01*
X0008283Y0129661D01*
X0064169Y0185606D02*
X0064169Y0188756D01*
X0065350Y0188756D01*
X0071650Y0188756D02*
X0072831Y0188756D01*
X0072831Y0185606D01*
X0074169Y0181256D02*
X0074169Y0178106D01*
X0074169Y0181256D02*
X0075350Y0181256D01*
X0081650Y0181256D02*
X0082831Y0181256D01*
X0082831Y0178106D01*
X0084169Y0173756D02*
X0084169Y0170606D01*
X0084169Y0173756D02*
X0085350Y0173756D01*
X0091650Y0173756D02*
X0092831Y0173756D01*
X0092831Y0170606D01*
X0094169Y0166256D02*
X0094169Y0163106D01*
X0094169Y0166256D02*
X0095350Y0166256D01*
X0101650Y0166256D02*
X0102831Y0166256D01*
X0102831Y0163106D01*
X0104169Y0158756D02*
X0104169Y0155606D01*
X0104169Y0158756D02*
X0105350Y0158756D01*
X0111650Y0158756D02*
X0112831Y0158756D01*
X0112831Y0155606D01*
X0114169Y0151256D02*
X0114169Y0148106D01*
X0114169Y0151256D02*
X0115350Y0151256D01*
X0121650Y0151256D02*
X0122831Y0151256D01*
X0122831Y0148106D01*
X0124169Y0143756D02*
X0124169Y0140606D01*
X0124169Y0143756D02*
X0125350Y0143756D01*
X0131650Y0143756D02*
X0132831Y0143756D01*
X0132831Y0140606D01*
X0134169Y0136256D02*
X0134169Y0133106D01*
X0134169Y0136256D02*
X0135350Y0136256D01*
X0141650Y0136256D02*
X0142831Y0136256D01*
X0142831Y0133106D01*
X0148500Y0116000D02*
X0146000Y0113500D01*
X0146000Y0108500D01*
X0148500Y0106000D01*
X0146000Y0103500D01*
X0146000Y0098500D01*
X0148500Y0096000D01*
X0146000Y0093500D01*
X0146000Y0088500D01*
X0148500Y0086000D01*
X0153500Y0086000D01*
X0156000Y0088500D01*
X0156000Y0093500D01*
X0153500Y0096000D01*
X0156000Y0098500D01*
X0156000Y0103500D01*
X0153500Y0106000D01*
X0156000Y0108500D01*
X0156000Y0113500D01*
X0153500Y0116000D01*
X0148500Y0116000D01*
X0149622Y0208008D02*
X0102378Y0208008D01*
X0102378Y0223362D01*
X0090250Y0221500D02*
X0090250Y0225500D01*
X0074907Y0218500D02*
X0074910Y0218742D01*
X0074919Y0218983D01*
X0074934Y0219224D01*
X0074954Y0219465D01*
X0074981Y0219705D01*
X0075014Y0219944D01*
X0075052Y0220183D01*
X0075096Y0220420D01*
X0075146Y0220657D01*
X0075202Y0220892D01*
X0075264Y0221125D01*
X0075331Y0221357D01*
X0075404Y0221588D01*
X0075482Y0221816D01*
X0075567Y0222042D01*
X0075656Y0222267D01*
X0075751Y0222489D01*
X0075852Y0222708D01*
X0075958Y0222926D01*
X0076069Y0223140D01*
X0076186Y0223352D01*
X0076307Y0223560D01*
X0076434Y0223766D01*
X0076566Y0223968D01*
X0076703Y0224168D01*
X0076844Y0224363D01*
X0076990Y0224556D01*
X0077141Y0224744D01*
X0077297Y0224929D01*
X0077457Y0225110D01*
X0077621Y0225287D01*
X0077790Y0225460D01*
X0077963Y0225629D01*
X0078140Y0225793D01*
X0078321Y0225953D01*
X0078506Y0226109D01*
X0078694Y0226260D01*
X0078887Y0226406D01*
X0079082Y0226547D01*
X0079282Y0226684D01*
X0079484Y0226816D01*
X0079690Y0226943D01*
X0079898Y0227064D01*
X0080110Y0227181D01*
X0080324Y0227292D01*
X0080542Y0227398D01*
X0080761Y0227499D01*
X0080983Y0227594D01*
X0081208Y0227683D01*
X0081434Y0227768D01*
X0081662Y0227846D01*
X0081893Y0227919D01*
X0082125Y0227986D01*
X0082358Y0228048D01*
X0082593Y0228104D01*
X0082830Y0228154D01*
X0083067Y0228198D01*
X0083306Y0228236D01*
X0083545Y0228269D01*
X0083785Y0228296D01*
X0084026Y0228316D01*
X0084267Y0228331D01*
X0084508Y0228340D01*
X0084750Y0228343D01*
X0084992Y0228340D01*
X0085233Y0228331D01*
X0085474Y0228316D01*
X0085715Y0228296D01*
X0085955Y0228269D01*
X0086194Y0228236D01*
X0086433Y0228198D01*
X0086670Y0228154D01*
X0086907Y0228104D01*
X0087142Y0228048D01*
X0087375Y0227986D01*
X0087607Y0227919D01*
X0087838Y0227846D01*
X0088066Y0227768D01*
X0088292Y0227683D01*
X0088517Y0227594D01*
X0088739Y0227499D01*
X0088958Y0227398D01*
X0089176Y0227292D01*
X0089390Y0227181D01*
X0089602Y0227064D01*
X0089810Y0226943D01*
X0090016Y0226816D01*
X0090218Y0226684D01*
X0090418Y0226547D01*
X0090613Y0226406D01*
X0090806Y0226260D01*
X0090994Y0226109D01*
X0091179Y0225953D01*
X0091360Y0225793D01*
X0091537Y0225629D01*
X0091710Y0225460D01*
X0091879Y0225287D01*
X0092043Y0225110D01*
X0092203Y0224929D01*
X0092359Y0224744D01*
X0092510Y0224556D01*
X0092656Y0224363D01*
X0092797Y0224168D01*
X0092934Y0223968D01*
X0093066Y0223766D01*
X0093193Y0223560D01*
X0093314Y0223352D01*
X0093431Y0223140D01*
X0093542Y0222926D01*
X0093648Y0222708D01*
X0093749Y0222489D01*
X0093844Y0222267D01*
X0093933Y0222042D01*
X0094018Y0221816D01*
X0094096Y0221588D01*
X0094169Y0221357D01*
X0094236Y0221125D01*
X0094298Y0220892D01*
X0094354Y0220657D01*
X0094404Y0220420D01*
X0094448Y0220183D01*
X0094486Y0219944D01*
X0094519Y0219705D01*
X0094546Y0219465D01*
X0094566Y0219224D01*
X0094581Y0218983D01*
X0094590Y0218742D01*
X0094593Y0218500D01*
X0094590Y0218258D01*
X0094581Y0218017D01*
X0094566Y0217776D01*
X0094546Y0217535D01*
X0094519Y0217295D01*
X0094486Y0217056D01*
X0094448Y0216817D01*
X0094404Y0216580D01*
X0094354Y0216343D01*
X0094298Y0216108D01*
X0094236Y0215875D01*
X0094169Y0215643D01*
X0094096Y0215412D01*
X0094018Y0215184D01*
X0093933Y0214958D01*
X0093844Y0214733D01*
X0093749Y0214511D01*
X0093648Y0214292D01*
X0093542Y0214074D01*
X0093431Y0213860D01*
X0093314Y0213648D01*
X0093193Y0213440D01*
X0093066Y0213234D01*
X0092934Y0213032D01*
X0092797Y0212832D01*
X0092656Y0212637D01*
X0092510Y0212444D01*
X0092359Y0212256D01*
X0092203Y0212071D01*
X0092043Y0211890D01*
X0091879Y0211713D01*
X0091710Y0211540D01*
X0091537Y0211371D01*
X0091360Y0211207D01*
X0091179Y0211047D01*
X0090994Y0210891D01*
X0090806Y0210740D01*
X0090613Y0210594D01*
X0090418Y0210453D01*
X0090218Y0210316D01*
X0090016Y0210184D01*
X0089810Y0210057D01*
X0089602Y0209936D01*
X0089390Y0209819D01*
X0089176Y0209708D01*
X0088958Y0209602D01*
X0088739Y0209501D01*
X0088517Y0209406D01*
X0088292Y0209317D01*
X0088066Y0209232D01*
X0087838Y0209154D01*
X0087607Y0209081D01*
X0087375Y0209014D01*
X0087142Y0208952D01*
X0086907Y0208896D01*
X0086670Y0208846D01*
X0086433Y0208802D01*
X0086194Y0208764D01*
X0085955Y0208731D01*
X0085715Y0208704D01*
X0085474Y0208684D01*
X0085233Y0208669D01*
X0084992Y0208660D01*
X0084750Y0208657D01*
X0084508Y0208660D01*
X0084267Y0208669D01*
X0084026Y0208684D01*
X0083785Y0208704D01*
X0083545Y0208731D01*
X0083306Y0208764D01*
X0083067Y0208802D01*
X0082830Y0208846D01*
X0082593Y0208896D01*
X0082358Y0208952D01*
X0082125Y0209014D01*
X0081893Y0209081D01*
X0081662Y0209154D01*
X0081434Y0209232D01*
X0081208Y0209317D01*
X0080983Y0209406D01*
X0080761Y0209501D01*
X0080542Y0209602D01*
X0080324Y0209708D01*
X0080110Y0209819D01*
X0079898Y0209936D01*
X0079690Y0210057D01*
X0079484Y0210184D01*
X0079282Y0210316D01*
X0079082Y0210453D01*
X0078887Y0210594D01*
X0078694Y0210740D01*
X0078506Y0210891D01*
X0078321Y0211047D01*
X0078140Y0211207D01*
X0077963Y0211371D01*
X0077790Y0211540D01*
X0077621Y0211713D01*
X0077457Y0211890D01*
X0077297Y0212071D01*
X0077141Y0212256D01*
X0076990Y0212444D01*
X0076844Y0212637D01*
X0076703Y0212832D01*
X0076566Y0213032D01*
X0076434Y0213234D01*
X0076307Y0213440D01*
X0076186Y0213648D01*
X0076069Y0213860D01*
X0075958Y0214074D01*
X0075852Y0214292D01*
X0075751Y0214511D01*
X0075656Y0214733D01*
X0075567Y0214958D01*
X0075482Y0215184D01*
X0075404Y0215412D01*
X0075331Y0215643D01*
X0075264Y0215875D01*
X0075202Y0216108D01*
X0075146Y0216343D01*
X0075096Y0216580D01*
X0075052Y0216817D01*
X0075014Y0217056D01*
X0074981Y0217295D01*
X0074954Y0217535D01*
X0074934Y0217776D01*
X0074919Y0218017D01*
X0074910Y0218258D01*
X0074907Y0218500D01*
X0066000Y0218500D02*
X0066000Y0213500D01*
X0063500Y0211000D01*
X0058500Y0211000D01*
X0056000Y0213500D01*
X0056000Y0218500D01*
X0058500Y0221000D01*
X0056000Y0223500D01*
X0056000Y0228500D01*
X0058500Y0231000D01*
X0063500Y0231000D01*
X0066000Y0228500D01*
X0066000Y0223500D01*
X0063500Y0221000D01*
X0066000Y0218500D01*
X0102378Y0239898D02*
X0102378Y0254858D01*
X0149622Y0254858D02*
X0149622Y0239898D01*
X0149622Y0223362D02*
X0149622Y0208008D01*
X0172378Y0208008D02*
X0219622Y0208008D01*
X0219622Y0223362D01*
X0219622Y0239898D02*
X0219622Y0254858D01*
X0172378Y0254858D02*
X0172378Y0239898D01*
X0172378Y0223362D02*
X0172378Y0208008D01*
X0015075Y0213500D02*
X0015075Y0218500D01*
D17*
X0068446Y0219239D02*
X0068446Y0220741D01*
X0068446Y0219990D02*
X0072199Y0219990D01*
X0072950Y0219239D01*
X0072950Y0218489D01*
X0072199Y0217738D01*
X0071449Y0222342D02*
X0071449Y0224594D01*
X0070698Y0225345D01*
X0069197Y0225345D01*
X0068446Y0224594D01*
X0068446Y0222342D01*
X0072950Y0222342D01*
X0072199Y0226946D02*
X0072950Y0227697D01*
X0072950Y0229198D01*
X0072199Y0229949D01*
X0070698Y0229949D01*
X0069947Y0229198D01*
X0069947Y0228447D01*
X0070698Y0226946D01*
X0068446Y0226946D01*
X0068446Y0229949D01*
X0158446Y0114198D02*
X0160698Y0111946D01*
X0160698Y0114949D01*
X0162950Y0114198D02*
X0158446Y0114198D01*
X0159197Y0110345D02*
X0158446Y0109594D01*
X0158446Y0107342D01*
X0162950Y0107342D01*
X0161449Y0107342D02*
X0161449Y0109594D01*
X0160698Y0110345D01*
X0159197Y0110345D01*
X0158446Y0105741D02*
X0158446Y0104239D01*
X0158446Y0104990D02*
X0162199Y0104990D01*
X0162950Y0104239D01*
X0162950Y0103489D01*
X0162199Y0102738D01*
X0226549Y0178450D02*
X0227300Y0179201D01*
X0227300Y0179951D01*
X0226549Y0180702D01*
X0222796Y0180702D01*
X0222796Y0179951D02*
X0222796Y0181453D01*
X0222796Y0183054D02*
X0222796Y0185306D01*
X0223547Y0186056D01*
X0225048Y0186056D01*
X0225799Y0185306D01*
X0225799Y0183054D01*
X0227300Y0183054D02*
X0222796Y0183054D01*
X0223547Y0187658D02*
X0222796Y0188408D01*
X0222796Y0189910D01*
X0223547Y0190660D01*
X0224297Y0190660D01*
X0227300Y0187658D01*
X0227300Y0190660D01*
M02*
