%
M48
M72
T01C0.01969
T02C0.02756
T03C0.03600
T04C0.04000
T05C0.09000
%
T01
X57250Y33500
X67250Y43500
X74750Y52250
X82250Y61000
X96000Y64750
X106000Y69750
X113500Y77250
X119750Y61000
X109750Y53500
X99750Y46000
X89750Y38500
X79750Y31000
X69750Y23500
X59750Y16000
X91000Y84750
X59750Y113500
X83500Y143500
X76000Y151000
X67250Y159750
X59750Y167250
X52250Y176000
X68500Y178500
X78500Y171000
X88500Y163500
X98500Y156000
X108500Y148500
X118500Y141000
X128500Y133500
X138500Y126000
X116000Y124750
X107250Y131000
X96000Y137250
X129750Y68500
X42250Y242250
T02
X84750Y223500
X84750Y213500
T03
X121079Y213200
X121079Y221000
X130921Y221000
X130921Y213200
X191079Y213200
X191079Y221000
X200921Y221000
X200921Y213200
T04
X21000Y26000
X21000Y36000
X21000Y46000
X21000Y56000
X21000Y66000
X21000Y76000
X21000Y86000
X21000Y96000
X21000Y106000
X21000Y116000
X21000Y126000
X21000Y136000
X21000Y146000
X21000Y156000
X21000Y166000
X21000Y176000
X21000Y186000
X21000Y196000
X21000Y206000
X21000Y216000
X31000Y216000
X31000Y206000
X31000Y196000
X31000Y186000
X31000Y176000
X31000Y166000
X31000Y156000
X31000Y146000
X31000Y136000
X31000Y126000
X31000Y116000
X31000Y106000
X31000Y96000
X31000Y86000
X31000Y76000
X31000Y66000
X31000Y56000
X31000Y46000
X31000Y36000
X31000Y26000
X151500Y91000
X150500Y101000
X151500Y111000
X206000Y111000
X206000Y101000
X206000Y91000
X206000Y81000
X206000Y71000
X206000Y61000
X206000Y51000
X206000Y41000
X206000Y31000
X206000Y21000
X206000Y11000
X216000Y11000
X216000Y21000
X216000Y31000
X216000Y41000
X216000Y51000
X216000Y61000
X216000Y71000
X216000Y81000
X216000Y91000
X216000Y101000
X216000Y111000
X216000Y121000
X216000Y131000
X216000Y141000
X216000Y151000
X216000Y161000
X216000Y171000
X206000Y171000
X206000Y161000
X206000Y151000
X206000Y141000
X206000Y131000
X206000Y121000
X61000Y215300
X61000Y226700
T05
X102300Y231700
X149700Y231700
X172300Y231700
X219700Y231700
M30
