G75*
%MOIN*%
%OFA0B0*%
%FSLAX25Y25*%
%IPPOS*%
%LPD*%
%AMOC8*
5,1,8,0,0,1.08239X$1,22.5*
%
%ADD10R,0.02569X0.03356*%
%ADD11C,0.08000*%
%ADD12OC8,0.08000*%
%ADD13R,0.03356X0.03356*%
%ADD14R,0.03750X0.05324*%
%ADD15R,0.01800X0.04500*%
%ADD16C,0.07200*%
%ADD17C,0.13600*%
%ADD18R,0.05324X0.03750*%
%ADD19R,0.07100X0.07100*%
%ADD20C,0.07100*%
D10*
X0194750Y0016138D03*
X0194750Y0021256D03*
X0194750Y0026138D03*
X0194750Y0031256D03*
X0194750Y0036138D03*
X0194750Y0041256D03*
X0194750Y0046138D03*
X0194750Y0051256D03*
X0194750Y0056138D03*
X0194750Y0061256D03*
X0194750Y0066138D03*
X0194750Y0071256D03*
X0194750Y0076138D03*
X0194750Y0081256D03*
X0194750Y0086138D03*
X0194750Y0091256D03*
X0194750Y0096138D03*
X0194750Y0101256D03*
X0194750Y0106138D03*
X0194750Y0111256D03*
X0194750Y0116138D03*
X0194750Y0121256D03*
X0194750Y0126138D03*
X0194750Y0131256D03*
X0194750Y0136138D03*
X0194750Y0141256D03*
X0194750Y0146138D03*
X0194750Y0151256D03*
X0194750Y0156138D03*
X0194750Y0161256D03*
X0194750Y0166138D03*
X0194750Y0171256D03*
D11*
X0206000Y0171000D03*
X0206000Y0161000D03*
X0206000Y0151000D03*
X0206000Y0141000D03*
X0206000Y0131000D03*
X0206000Y0121000D03*
X0206000Y0111000D03*
X0206000Y0101000D03*
X0206000Y0091000D03*
X0206000Y0081000D03*
X0206000Y0071000D03*
X0206000Y0061000D03*
X0206000Y0051000D03*
X0206000Y0041000D03*
X0206000Y0031000D03*
X0206000Y0021000D03*
X0206000Y0011000D03*
X0216000Y0011000D03*
X0216000Y0021000D03*
X0216000Y0031000D03*
X0216000Y0041000D03*
X0216000Y0051000D03*
X0216000Y0061000D03*
X0216000Y0071000D03*
X0216000Y0081000D03*
X0216000Y0091000D03*
X0216000Y0101000D03*
X0216000Y0111000D03*
X0216000Y0121000D03*
X0216000Y0131000D03*
X0216000Y0141000D03*
X0216000Y0151000D03*
X0216000Y0161000D03*
X0216000Y0171000D03*
X0151500Y0111000D03*
X0150500Y0101000D03*
X0151500Y0091000D03*
X0061000Y0215300D03*
X0061000Y0226700D03*
D12*
X0021000Y0026000D03*
X0021000Y0036000D03*
X0021000Y0046000D03*
X0021000Y0056000D03*
X0021000Y0066000D03*
X0021000Y0076000D03*
X0021000Y0086000D03*
X0021000Y0096000D03*
X0021000Y0106000D03*
X0021000Y0116000D03*
X0021000Y0126000D03*
X0021000Y0136000D03*
X0021000Y0146000D03*
X0021000Y0156000D03*
X0021000Y0166000D03*
X0021000Y0176000D03*
X0021000Y0186000D03*
X0021000Y0196000D03*
X0021000Y0206000D03*
X0021000Y0216000D03*
X0031000Y0216000D03*
X0031000Y0206000D03*
X0031000Y0196000D03*
X0031000Y0186000D03*
X0031000Y0176000D03*
X0031000Y0166000D03*
X0031000Y0156000D03*
X0031000Y0146000D03*
X0031000Y0136000D03*
X0031000Y0126000D03*
X0031000Y0116000D03*
X0031000Y0106000D03*
X0031000Y0096000D03*
X0031000Y0086000D03*
X0031000Y0076000D03*
X0031000Y0066000D03*
X0031000Y0056000D03*
X0031000Y0046000D03*
X0031000Y0036000D03*
X0031000Y0026000D03*
D13*
X0064858Y0021059D03*
X0064858Y0015941D03*
X0072142Y0018500D03*
X0074858Y0023441D03*
X0074858Y0028559D03*
X0082142Y0026000D03*
X0084858Y0030941D03*
X0084858Y0036059D03*
X0092142Y0033500D03*
X0094858Y0038441D03*
X0094858Y0043559D03*
X0102142Y0041000D03*
X0104858Y0045941D03*
X0104858Y0051059D03*
X0112142Y0048500D03*
X0114858Y0053441D03*
X0114858Y0058559D03*
X0122142Y0056000D03*
X0124858Y0060941D03*
X0124858Y0066059D03*
X0132142Y0063500D03*
X0134858Y0068441D03*
X0134858Y0073559D03*
X0142142Y0071000D03*
X0141059Y0129858D03*
X0135941Y0129858D03*
X0138500Y0137142D03*
X0131059Y0137358D03*
X0125941Y0137358D03*
X0128500Y0144642D03*
X0121059Y0144858D03*
X0115941Y0144858D03*
X0118500Y0152142D03*
X0111059Y0152358D03*
X0105941Y0152358D03*
X0108500Y0159642D03*
X0101059Y0159858D03*
X0095941Y0159858D03*
X0098500Y0167142D03*
X0091059Y0167358D03*
X0085941Y0167358D03*
X0088500Y0174642D03*
X0081059Y0174858D03*
X0075941Y0174858D03*
X0078500Y0182142D03*
X0071059Y0182358D03*
X0065941Y0182358D03*
X0068500Y0189642D03*
D14*
X0059543Y0181000D03*
X0052457Y0181000D03*
X0062457Y0173500D03*
X0069543Y0173500D03*
X0072457Y0166000D03*
X0079543Y0166000D03*
X0082457Y0158500D03*
X0089543Y0158500D03*
X0092457Y0151000D03*
X0099543Y0151000D03*
X0102457Y0143500D03*
X0109543Y0143500D03*
X0112457Y0136000D03*
X0119543Y0136000D03*
X0122457Y0128500D03*
X0129543Y0128500D03*
X0129543Y0073500D03*
X0122457Y0073500D03*
X0119543Y0066000D03*
X0112457Y0066000D03*
X0109543Y0058500D03*
X0102457Y0058500D03*
X0099543Y0051000D03*
X0092457Y0051000D03*
X0089543Y0043500D03*
X0082457Y0043500D03*
X0079543Y0036000D03*
X0072457Y0036000D03*
X0069543Y0028500D03*
X0062457Y0028500D03*
X0059543Y0021000D03*
X0052457Y0021000D03*
D15*
X0064366Y0089513D03*
X0066925Y0089513D03*
X0069484Y0089513D03*
X0072043Y0089513D03*
X0074602Y0089513D03*
X0077161Y0089513D03*
X0079720Y0089513D03*
X0082280Y0089513D03*
X0084839Y0089513D03*
X0087398Y0089513D03*
X0089957Y0089513D03*
X0092516Y0089513D03*
X0095075Y0089513D03*
X0097634Y0089513D03*
X0097634Y0112487D03*
X0095075Y0112487D03*
X0092516Y0112487D03*
X0089957Y0112487D03*
X0087398Y0112487D03*
X0084839Y0112487D03*
X0082280Y0112487D03*
X0079720Y0112487D03*
X0077161Y0112487D03*
X0074602Y0112487D03*
X0072043Y0112487D03*
X0069484Y0112487D03*
X0066925Y0112487D03*
X0064366Y0112487D03*
D16*
X0121079Y0213200D03*
X0121079Y0221000D03*
X0130921Y0221000D03*
X0130921Y0213200D03*
X0191079Y0213200D03*
X0191079Y0221000D03*
X0200921Y0221000D03*
X0200921Y0213200D03*
D17*
X0219700Y0231700D03*
X0172300Y0231700D03*
X0149700Y0231700D03*
X0102300Y0231700D03*
D18*
X0108500Y0110793D03*
X0108500Y0103707D03*
X0108500Y0098293D03*
X0108500Y0091207D03*
X0051000Y0015793D03*
X0051000Y0008707D03*
D19*
X0084750Y0213500D03*
D20*
X0084750Y0223500D03*
M02*
